<svg xmlns="http://www.w3.org/2000/svg" xmlns:xlink="http://www.w3.org/1999/xlink" version="1.1" id="Your_Icon" x="0px" y="0px" width="100px" height="100px" viewBox="0 0 100 100" enable-background="new 0 0 100 100" xml:space="preserve">
<style>
  path,polygon{
    fill:#fff;
  }
</style>
<path d="M97.83,58c0.11-1.32,0.17-2.65,0.17-4c0-11.36-3.94-21.79-10.53-30H48v24.311l-2-2V21h38.85C76.11,11.76,63.73,6,50,6  C23.49,6,2,27.49,2,54c0,13.23,5.35,25.21,14,33.88V61h5.91L19,59V47h7.09c0.01-0.04,0.01-0.08,0.02-0.12  c0.36-1.86,1.63-3.52,3.35-4.34c1.09-0.51,2.19-0.54,3.36-0.54h3.85c1.07,0,2.26-0.12,3.27,0.29c1.85,0.74,3.42,2.79,4.8,4.17  c1.43,1.43,2.87,2.87,4.31,4.31c1.8-1.799,3.601-3.6,5.41-5.41c0.62-0.62,1.22-1.3,1.89-1.89c2.061-2.03,5.24,1.14,3.181,3.18  c-2.46,2.459-4.92,4.92-7.38,7.39c-1.24,1.24-2.461,2.61-4.4,1.6c-0.77-0.399-1.38-1.189-1.98-1.79c-0.59-0.59-1.18-1.18-1.77-1.77  V61h3v29h3v-6.79c0-2.3,1.92-4.21,4.22-4.21h4.65c2.3,0,4.13,1.91,4.13,4.21V90h2v-6.79c0-2.3,1.92-4.21,4.22-4.21h4.65  c2.3,0,4.13,1.91,4.13,4.21V90h2v-6.79c0-2.3,1.92-4.21,4.22-4.21h4.65c0.66,0,1.29,0.16,1.84,0.44  c3.62-5.771,6.04-12.37,6.91-19.44H46v-4.47c0.37,0.38,0.79,0.739,1.29,1c0.24,0.12,0.48,0.22,0.71,0.29V58H97.83z M21,43  c-3.31,0-6,2.69-6,6h-2c0-4.41,3.59-8,8-8V43z M21,38c-6.07,0-11,4.93-11,11H8c0-7.17,5.83-13,13-13V38z M35.06,39.96  c-3.72,0-6.74-3.02-6.74-6.74c0-3.73,3.02-6.75,6.74-6.75c3.73,0,6.75,3.02,6.75,6.75C41.81,36.94,38.79,39.96,35.06,39.96z   M86.54,67.67c2.7,0,4.88,2.18,4.88,4.87c0,2.7-2.18,4.88-4.88,4.88c-2.69,0-4.87-2.18-4.87-4.88  C81.67,69.85,83.85,67.67,86.54,67.67z M71.54,67.67c2.7,0,4.88,2.18,4.88,4.87c0,2.7-2.18,4.88-4.88,4.88  c-2.69,0-4.87-2.18-4.87-4.88C66.67,69.85,68.85,67.67,71.54,67.67z M56.54,67.67c2.7,0,4.88,2.18,4.88,4.87  c0,2.7-2.18,4.88-4.88,4.88c-2.69,0-4.87-2.18-4.87-4.88C51.67,69.85,53.85,67.67,56.54,67.67z"/>
<polygon points="41,61 25,61 20,58 20,48 36,48 36,58 "/>
</svg>
