<svg xmlns="http://www.w3.org/2000/svg" xmlns:xlink="http://www.w3.org/1999/xlink" version="1.1" id="Layer_2" x="0px" y="0px" width="100px" height="100px" viewBox="0 0 100 100" enable-background="new 0 0 100 100" xml:space="preserve">
  <style>
    path{
    fill:#fff;
    }
  </style>
<path d="M85.099,46.704c-5.869-1.144-12.495,2.571-15.405,9.844c-5.012,12.528-7.949,14.083-10.195,14.085  c-2.247,0.001-3.456-4.84-7.258-4.84s-6.048,4.838-9.505,4.84c-3.456,0.001-6.048-5.013-10.541-5.013s-5.357,4.839-13.133,5.011  c-7.776,0.174-9.901-12.612-9.728-17.797c0.173-5.184,8.691-5,8.691-5l40.437-0.012c0,0,12.96,0.346,12.96-2.592  c0-2.526-9.58-2.752-12.269-2.765c-0.438-0.003-0.691,0-0.691,0s-35.252-0.173-39.4-0.001c-4.147,0.171-16.416-1.381-16.416,13.134  c0,21.6,15.897,41.299,15.897,41.299h39.918c9.331-7.084,15.552-24.019,15.552-24.019c4.801,2.548,9.99,2.893,14.094,1.32  c5.541-1.847,9.58-7.13,9.58-13.436C97.687,53.362,92.141,47.354,85.099,46.704z M84.268,69.642c-5.03,0-9.107-3.958-9.107-8.84  c0-4.883,4.077-8.841,9.107-8.841s9.107,3.958,9.107,8.841C93.375,65.684,89.298,69.642,84.268,69.642z"/>
<path d="M236.02,86.93c0-2.676-2.006-4.85-4.553-5.084c-2.123-0.414-4.52,0.93-5.572,3.561c-1.812,4.531-2.875,5.094-3.688,5.094  s-1.25-1.75-2.625-1.75s-2.188,1.75-3.438,1.75s-2.188-1.812-3.812-1.812s-1.938,1.75-4.75,1.812s-3.062-4.312-3-6.188  s2.625-2.059,2.625-2.059l14.625-0.004c0,0,4.688,0.125,4.688-0.938c0-0.914-3.465-0.996-4.438-1c-0.158-0.002-0.25,0-0.25,0  s-12.75-0.062-14.25-0.001s-5.938-0.499-5.938,4.751c0,7.812,5.75,14.938,5.75,14.938h14.438c3.375-2.562,5.625-8.688,5.625-8.688  c1.736,0.921,3.613,1.046,5.098,0.477C234.559,91.121,236.02,89.211,236.02,86.93z"/>
<path d="M34.98,18.482c0,0-1.695-3.312-4.479-3.875c-2.784-0.562,2.3,1.688,2.905,6.438c0.605,4.75-0.896,3.74-4.6,9  c-1.937,2.75,1.574,6.188,5.205,7.5s2.039,0.625,1.02-0.938c-1.02-1.562-3.671-3.812-2.461-6.125S38.611,23.419,34.98,18.482z"/>
<path d="M47.147,18.482c0,0-1.695-3.312-4.479-3.875c-2.784-0.562,2.3,1.688,2.904,6.438c0.605,4.75-0.895,3.74-4.599,9  c-1.937,2.75,1.574,6.188,5.205,7.5c3.632,1.312,2.039,0.625,1.02-0.938s-3.671-3.812-2.46-6.125S50.778,23.419,47.147,18.482z"/>
<path d="M204.342,42.103c0,0-1.694-3.312-4.479-3.875c-2.783-0.562,2.301,1.688,2.904,6.438c0.605,4.75-0.895,3.74-4.599,9  c-1.937,2.75,1.573,6.188,5.204,7.5c3.633,1.312,2.039,0.625,1.02-0.938s-3.67-3.812-2.46-6.125S207.973,47.04,204.342,42.103z"/>
</svg>
