<svg xmlns="http://www.w3.org/2000/svg" xmlns:xlink="http://www.w3.org/1999/xlink" version="1.1" id="Layer_1" x="0px" y="0px" width="100px" height="100px" viewBox="0 0 100 100" enable-background="new 0 0 100 100" xml:space="preserve">
  <style>
    path,polygon{
    fill:#fff;
    }
  </style>
<path id="Working"  d="M91.667,7.583H8.333C3.737,7.583,0,11.322,0,15.917v50c0,4.594,3.737,8.333,8.333,8.333h25.004  l0.004,4.082c-0.075,0.277-0.681,1.009-1.082,1.493c-1.304,1.573-3.093,3.735-3.093,6.925c0,4.586,3.738,6.25,6.25,6.25h29.167  c2.513,0,6.25-1.664,6.25-6.25c0-3.189-1.788-5.352-3.092-6.925c-0.401-0.484-1.009-1.216-1.074-1.408V74.25h25  c4.597,0,8.333-3.739,8.333-8.333v-50C100,11.322,96.264,7.583,91.667,7.583z M64.583,88.834H35.441  c-0.962-0.023-2.107-0.407-2.107-2.084c0-1.688,1.086-2.998,2.136-4.268c0.997-1.205,2.03-2.453,2.03-4.065V74.25h25v4.167  c0,1.612,1.033,2.86,2.029,4.065c1.051,1.27,2.138,2.578,2.138,4.268C66.667,88.427,65.521,88.811,64.583,88.834z M95.833,65.917  c0,2.299-1.869,4.167-4.166,4.167h-25H62.5h-25h-4.167h-25c-2.297,0-4.167-1.868-4.167-4.167v-50c0-2.298,1.87-4.167,4.167-4.167  h83.333c2.297,0,4.166,1.869,4.166,4.167L95.833,65.917L95.833,65.917z M87.5,15.917h-75c-2.297,0-4.167,1.869-4.167,4.167V61.75  c0,2.3,1.87,4.167,4.167,4.167h75c2.297,0,4.167-1.867,4.167-4.167V20.083C91.667,17.786,89.797,15.917,87.5,15.917z M12.5,61.75  V20.083h75l0.004,41.667H12.5z M33.333,25.292c-7.467,0-13.542,6.075-13.542,13.542s6.075,13.542,13.542,13.542  c4.856,0,9.11-2.577,11.501-6.429l7.753,4.846l5.2-13H46.822C46.287,30.812,40.448,25.292,33.333,25.292z M44.006,42.974  l-4.958-3.099h5.69C44.641,40.96,44.385,41.998,44.006,42.974z M31.785,37.792l11.285,7.052c-2.022,3.264-5.625,5.448-9.737,5.448  c-6.317,0-11.458-5.14-11.458-11.458c0-6.318,5.141-11.458,11.458-11.458c5.965,0,10.876,4.585,11.405,10.417L31.785,37.792  L31.785,37.792z M51.579,47.708l-5.77-3.606c0.557-1.315,0.899-2.739,1.013-4.226h7.89L51.579,47.708z M76.042,60.709h10.416V21.125  H76.042V60.709z M78.125,23.208h6.25v2.083h-6.25V23.208z M78.125,27.375h6.25v2.083h-6.25V27.375z M78.125,31.542h6.25v2.083h-6.25  V31.542z M78.125,35.708h6.25v2.083h-6.25V35.708z M78.125,39.875h6.25v2.083h-6.25V39.875z M78.125,44.042h6.25v2.084h-6.25V44.042  z M78.125,48.208h6.25v2.084h-6.25V48.208z M78.125,52.375h6.25v2.084h-6.25V52.375z M78.125,56.542h6.25v2.083h-6.25V56.542z"/>
</svg>
