<svg xmlns="http://www.w3.org/2000/svg" xmlns:xlink="http://www.w3.org/1999/xlink" version="1.1" id="Layer_1" x="0px" y="0px" width="81.8181818182px" height="100px" viewBox="0 0 135 165" enable-background="new 0 0 135 165" xml:space="preserve">
  <style>
    path,polygon,rect,circle, ellipse{
    fill:#fff;
    }
  </style>
<path fill="none" stroke="#000000" stroke-miterlimit="10" d="M426-136c0,0.553,0,1,0,1"/>
<path fill="#000000" d="M52.59,64.576l7.92-4.48c1.52,2.641,3.76,5.12,8.4,5.841c0,0,0-9.28,0-9.2  c-10.16-2.4-13.921-7.04-13.921-13.041c0-6,4.24-11.76,13.921-12.32v-8.08h5.359v8.24c6.08,0.961,10.08,4.24,12.24,7.041  l-6.96,5.279c-0.8-1.28-2.479-3.04-5.28-3.92v8c9.76,2.24,14.881,6.721,14.881,13.44c0,7.84-4.721,12.48-14.881,13.04v8.641H68.91  v-8.721C59.549,73.536,54.75,68.736,52.59,64.576z M64.75,42.815c0,1.761,0.56,2.88,4.16,3.84v-7.2  C65.789,39.775,64.75,41.136,64.75,42.815z M79.15,62.496c0-1.76-0.801-3.44-4.881-4.561v8.16  C78.27,65.616,79.15,64.096,79.15,62.496z"/>
<rect x="67.245" y="96.667" fill="#000000" width="7.25" height="45.083"/>
<path fill="#000000" stroke="#231F20" stroke-miterlimit="10" d="M354.688-182.571"/>
<path fill="#000000" d="M381.574-192.066"/>
<path fill="#000000" d="M394.75-205.583"/>
<polyline fill="#000000" points="354.492,-182.521 354.967,-180.476 355.157,-179.662 "/>
<path fill="#000000" d="M349.667-215.083"/>
<path fill="#000000" d="M350.25-212.652"/>
<path fill="#000000" d="M55.797,78.378c-8.692-7.292-18.552-11.847-28.157-13.619c3.413,9.151,9.61,18.071,18.302,25.364  c8.692,7.293,18.551,11.847,28.156,13.62C70.686,94.593,64.488,85.672,55.797,78.378z"/>
<path fill="#000000" d="M86.204,78.378c-8.691,7.294-14.889,16.212-18.302,25.365c9.604-1.772,19.466-6.327,28.157-13.62  s14.888-16.212,18.301-25.364C104.757,66.531,94.896,71.086,86.204,78.378z"/>
</svg>
