<svg xmlns="http://www.w3.org/2000/svg" xmlns:xlink="http://www.w3.org/1999/xlink" xmlns:a="http://ns.adobe.com/AdobeSVGViewerExtensions/3.0/" version="1.1" x="0px" y="0px" width="100px" height="100px" viewBox="51.991 0.593 100 100" enable-background="new 51.991 0.593 100 100" xml:space="preserve">
  <style>
    path,polygon,rect,circle, ellipse{
    fill:#fff;
    }
  </style>
<defs>
</defs>
<path display="none" d="M69.237,1.099c-0.737,0.737-1.112,1.612-1.112,2.649l-0.013,9.883h7.497l0.013-6.248l4.298,4.136  l4.223-4.073v6.185h7.497V3.823c0-1.037-0.362-1.912-1.1-2.649s-1.612-1.1-2.649-1.1c-0.538,0-1.037,0.1-1.487,0.3  c-0.225,0.063-0.425,0.163-0.612,0.3C85.581,0.862,85.431,1,85.343,1.087c-0.05,0.038-0.087,0.075-0.1,0.087  c-0.063,0.063-0.138,0.138-0.2,0.212L79.92,6.522l-5.173-5.173c-0.075-0.087-0.15-0.162-0.225-0.237C73.785,0.375,72.911,0,71.886,0  C70.849,0,69.974,0.362,69.237,1.099L69.237,1.099z"/>
<path display="none" d="M94.739,1.112c-0.737,0.737-1.1,1.612-1.1,2.649v9.871h7.497V3.761c0-1.037-0.362-1.912-1.1-2.649  s-1.612-1.1-2.649-1.1S95.477,0.375,94.739,1.112L94.739,1.112z"/>
<path display="none" d="M61.228,50.617l-0.012-0.013c-1.887-0.924-3.499-1.075-4.836-0.437c-1,0.425-1.849,1.274-2.536,2.537  c-0.013,0.012-0.013,0.025-0.013,0.037l-6.897,14.756h1.387l6.623-14.193c0.537-0.987,1.187-1.649,1.949-2  c1.049-0.437,2.312-0.3,3.773,0.425c0.137,0.063,0.275,0.137,0.412,0.212c0,0,0,0,0.013,0c1.137,0.638,1.899,1.362,2.312,2.199  c0.4,0.837,0.438,1.774,0.112,2.837l-5.26,10.521h1.387l5.01-9.996c0.012-0.038,0.025-0.063,0.038-0.101  c0.45-1.424,0.4-2.698-0.163-3.811v0.013c-0.487-1.062-1.424-1.974-2.836-2.749l-0.012-0.012  C61.528,50.767,61.378,50.692,61.228,50.617L61.228,50.617z"/>
<path display="none" d="M66.113,67.497h1.824l1.212-1.123c0.862-0.726,1.699-1.113,2.537-1.162c0.987-0.014,1.949,0.437,2.911,1.349  c0.15,0.138,0.3,0.3,0.462,0.476h0.013c0.087,0.111,0.187,0.225,0.287,0.337c0.038,0.037,0.075,0.087,0.113,0.124h1.537  c-0.2-0.299-0.425-0.6-0.675-0.912c-0.012-0.012-0.012-0.012-0.012-0.012c-0.112-0.137-0.225-0.262-0.337-0.375v-0.012  c-0.175-0.188-0.35-0.375-0.525-0.538c-1.25-1.187-2.524-1.749-3.811-1.687h-0.012c-1.087,0.037-2.174,0.512-3.286,1.449  c-0.013,0-0.013,0.013-0.025,0.025L66.113,67.497L66.113,67.497z"/>
<path display="none" d="M67.938,67.497h-1.824l-9.221,8.623c-0.587,0.562-1.063,0.787-1.425,0.674l-0.012-0.012  c-0.063-0.051-0.1-0.125-0.1-0.226c0-0.287,0.112-0.675,0.337-1.138c0-0.012,0-0.012,0-0.012l3.948-7.909h-1.387l-3.686,7.372  c-0.337,0.699-0.487,1.274-0.462,1.725c0.013,0.637,0.275,1.074,0.8,1.312c0.787,0.462,1.737,0.175,2.836-0.874L67.938,67.497  L67.938,67.497z"/>
<path display="none" d="M77.009,67.497h-1.537c0.75,0.963,1.162,1.888,1.249,2.787c0.05,0.912-0.262,1.787-0.937,2.648  L59.591,88.214c-1.112-2.761-3.074-5.26-5.873-7.484c-4.636-3.673-10.221-5.51-16.756-5.51c-6.535,0-12.108,1.837-16.743,5.51  c-3.499,2.787-5.686,6.011-6.56,9.659L1.452,78.181c1.862-2.561,3.711-4.098,5.573-4.623c1.874-0.486,3.761,0.113,5.647,1.799  l-0.025-0.024l3.187,3.187c0.012,0.012,0.025,0.012,0.037,0.025c1.188,1.037,2.512,1.148,3.961,0.35h0.013  c1.5-0.787,1.899-2.199,1.187-4.224l0.013,0.013l-2.387-7.186h-1.312l2.512,7.572v0.014c0.437,1.286,0.237,2.186-0.625,2.723v-0.012  c-0.912,0.512-1.749,0.449-2.511-0.162l-3.187-3.188c-0.012-0.012-0.025-0.012-0.038-0.024c-2.261-2.012-4.535-2.698-6.81-2.062  c-2.199,0.563-4.386,2.412-6.572,5.535c-0.087,0.125-0.125,0.262-0.112,0.412c0.012,0.15,0.075,0.275,0.188,0.388l13.407,13.407  c0.113,0.112,0.25,0.162,0.413,0.175c0.162,0.013,0.3-0.038,0.425-0.138c0.112-0.1,0.188-0.225,0.225-0.387  c0.625-3.836,2.736-7.186,6.335-10.047c4.411-3.486,9.734-5.234,15.969-5.234c6.235,0,11.57,1.748,15.981,5.234  c2.862,2.274,4.786,4.849,5.773,7.734c0,0.014,0,0.025,0.013,0.038c0.037,0.149,0.112,0.274,0.237,0.362  c0.112,0.088,0.25,0.125,0.4,0.112s0.287-0.063,0.4-0.163l16.88-15.943c0.013-0.024,0.038-0.049,0.05-0.063  c0.937-1.162,1.362-2.349,1.274-3.586v-0.012C77.909,69.31,77.596,68.409,77.009,67.497L77.009,67.497z"/>
<path display="none" d="M56.804,57.252c0.163,0.163,0.35,0.226,0.563,0.212c0.225,0,0.412-0.087,0.563-0.25  c0.162-0.162,0.237-0.35,0.225-0.574c-0.013-0.213-0.087-0.387-0.25-0.55c-0.162-0.149-0.362-0.226-0.575-0.226  c-0.212,0.014-0.4,0.088-0.562,0.25c-0.15,0.163-0.225,0.363-0.225,0.575C56.555,56.915,56.642,57.103,56.804,57.252L56.804,57.252z  "/>
<path display="none" d="M54.88,57.489c-0.113,0.013-0.188,0.063-0.25,0.15c-0.438,0.537-0.637,1.187-0.587,1.949  c0.05,0.875,0.4,1.624,1.062,2.236c0.637,0.612,1.375,0.924,2.237,0.938c0.05,0.012,0.112,0.012,0.188,0.012  c0.012,0,0.012,0,0.025,0c0.137-0.012,0.287-0.025,0.425-0.037c0.012,0,0.012,0,0.025,0c0.362-0.088,0.687-0.213,1-0.4  c0.2-0.125,0.387-0.274,0.563-0.462c0.212-0.237,0.387-0.487,0.524-0.774l0.013-0.013c0.063-0.163,0.125-0.337,0.188-0.513  c0.025-0.1,0.012-0.199-0.025-0.287c-0.063-0.088-0.138-0.15-0.225-0.175c-0.1-0.038-0.2-0.024-0.287,0.024  c-0.088,0.051-0.15,0.125-0.175,0.226c-0.05,0.149-0.1,0.288-0.162,0.425c-0.1,0.213-0.225,0.4-0.388,0.563l-0.012,0.012  c-0.125,0.139-0.263,0.25-0.413,0.338c-0.212,0.137-0.45,0.225-0.712,0.287c-0.125,0.013-0.25,0.025-0.362,0.037  c-0.013,0-0.013,0-0.013,0c-0.025,0-0.05,0-0.063,0c-0.025-0.012-0.05-0.012-0.063-0.012c-0.687-0.013-1.274-0.25-1.774-0.725  v-0.013c-0.513-0.476-0.788-1.05-0.825-1.724v-0.014c-0.038-0.563,0.112-1.037,0.425-1.437c0.062-0.087,0.087-0.175,0.075-0.274  c-0.013-0.113-0.063-0.188-0.137-0.25C55.067,57.515,54.98,57.478,54.88,57.489L54.88,57.489z"/>
<path display="none" d="M60.291,58.126c0.063-0.225,0.025-0.424-0.087-0.6c-0.113-0.188-0.275-0.313-0.487-0.361  c-0.212-0.063-0.425-0.038-0.612,0.074c-0.188,0.113-0.3,0.287-0.362,0.512c-0.063,0.213-0.025,0.4,0.1,0.588  c0.112,0.188,0.274,0.313,0.487,0.375c0.225,0.05,0.425,0.025,0.612-0.088C60.116,58.515,60.228,58.339,60.291,58.126L60.291,58.126  z"/>
<path display="none" d="M66.701,72.121c0.162-0.538,0.475-0.937,0.924-1.2c0.087-0.049,0.138-0.125,0.175-0.225  c0.025-0.1,0.013-0.188-0.037-0.275c-0.05-0.087-0.125-0.148-0.225-0.187c-0.1-0.024-0.188-0.013-0.275,0.038  c-0.625,0.336-1.049,0.887-1.274,1.623c-0.275,0.825-0.225,1.65,0.15,2.462s0.962,1.388,1.774,1.712  c0.038,0.013,0.075,0.037,0.112,0.051c0.013,0.012,0.038,0.012,0.05,0.023c0.138,0.038,0.275,0.076,0.413,0.113c0,0,0,0,0.012,0.012  c0.388,0.076,0.75,0.076,1.1,0c0.225-0.049,0.45-0.125,0.663-0.211c0-0.014,0-0.014,0.012-0.014c0.288-0.137,0.55-0.313,0.775-0.5  l0.012-0.012c0.138-0.138,0.275-0.275,0.388-0.438c0.063-0.088,0.075-0.188,0.063-0.287c-0.025-0.1-0.075-0.176-0.163-0.238  s-0.175-0.087-0.275-0.063c-0.1,0.014-0.175,0.063-0.237,0.15c-0.088,0.113-0.188,0.225-0.288,0.325  c-0.175,0.149-0.375,0.274-0.587,0.388c-0.012,0-0.012,0-0.012,0c-0.163,0.063-0.337,0.125-0.512,0.162  c-0.263,0.05-0.525,0.05-0.788,0c-0.087-0.025-0.187-0.051-0.287-0.088c-0.063-0.037-0.125-0.063-0.175-0.074H68.2  c-0.637-0.263-1.087-0.7-1.375-1.324c-0.3-0.639-0.337-1.275-0.125-1.912V72.121L66.701,72.121z"/>
<path display="none" d="M70.899,70.659c0.075-0.2,0.063-0.4-0.025-0.6c-0.087-0.213-0.238-0.35-0.45-0.438  c-0.212-0.063-0.412-0.051-0.612,0.05c-0.213,0.087-0.35,0.237-0.413,0.425c-0.075,0.213-0.063,0.412,0.025,0.625  c0.087,0.199,0.237,0.338,0.45,0.412c0.2,0.088,0.4,0.075,0.612-0.012C70.687,71.021,70.824,70.872,70.899,70.659L70.899,70.659z"/>
<path display="none" d="M70.911,72.495c0.038,0.213,0.138,0.389,0.325,0.525c0.187,0.125,0.387,0.176,0.6,0.138  s0.375-0.149,0.512-0.325c0.125-0.188,0.175-0.387,0.15-0.6c-0.038-0.213-0.163-0.387-0.35-0.512  c-0.188-0.139-0.375-0.188-0.575-0.15c-0.225,0.037-0.413,0.15-0.55,0.338C70.911,72.083,70.874,72.283,70.911,72.495L70.911,72.495  z"/>
<path display="none" d="M134.133,1.578c-0.213,0.188-0.363,0.325-0.45,0.413c-0.05,0.037-0.088,0.075-0.101,0.087  c-0.063,0.062-0.137,0.137-0.199,0.212l-5.123,5.135l-5.174-5.173c-0.074-0.087-0.149-0.163-0.225-0.237  c-0.736-0.737-1.611-1.112-2.636-1.112c-1.037,0-1.912,0.362-2.649,1.1s-1.111,1.612-1.111,2.649l-0.014,9.884h7.498l0.012-6.248  l4.299,4.136l4.223-4.073v6.185h7.498V4.727c0-1.037-0.363-1.912-1.1-2.649c-0.738-0.737-1.612-1.1-2.649-1.1  c-0.537,0-1.037,0.1-1.487,0.3C134.52,1.34,134.321,1.44,134.133,1.578L134.133,1.578z"/>
<path display="none" d="M124.086,32.94c0.8-0.788,1.199-1.737,1.199-2.849s-0.399-2.074-1.199-2.874  c-0.787-0.787-1.736-1.174-2.849-1.174s-2.074,0.387-2.861,1.174c-0.787,0.8-1.187,1.762-1.187,2.874s0.399,2.062,1.187,2.849  c0.787,0.799,1.749,1.199,2.861,1.199S123.299,33.74,124.086,32.94L124.086,32.94z"/>
<path display="none" d="M118.676,35.951c-0.737,0.737-1.111,1.612-1.111,2.649l-0.014,9.883h7.498l0.012-6.248l4.299,4.136  l4.223-4.073v6.185h7.498v-9.809c0-1.037-0.363-1.912-1.1-2.649c-0.738-0.737-1.612-1.1-2.649-1.1c-0.538,0-1.037,0.1-1.487,0.3  c-0.225,0.063-0.425,0.163-0.611,0.3c-0.213,0.188-0.363,0.325-0.451,0.413c-0.049,0.038-0.087,0.075-0.1,0.087  c-0.063,0.063-0.137,0.138-0.199,0.212l-5.123,5.135l-5.174-5.173c-0.074-0.087-0.149-0.162-0.225-0.237  c-0.736-0.737-1.611-1.112-2.637-1.112C120.288,34.852,119.414,35.214,118.676,35.951L118.676,35.951z"/>
<path display="none" d="M149.626,27.217c-0.787-0.787-1.737-1.174-2.849-1.174c-1.112,0-2.074,0.387-2.861,1.174  c-0.787,0.8-1.188,1.762-1.188,2.874s0.4,2.062,1.188,2.849c0.787,0.8,1.749,1.2,2.861,1.2c1.111,0,2.062-0.4,2.849-1.2  c0.8-0.787,1.2-1.737,1.2-2.849S150.426,28.017,149.626,27.217L149.626,27.217z"/>
<path display="none" d="M137.282,26.043c-1.112,0-2.074,0.387-2.861,1.174c-0.787,0.8-1.188,1.762-1.188,2.874  s0.4,2.062,1.188,2.849c0.787,0.799,1.749,1.199,2.861,1.199c1.111,0,2.062-0.4,2.849-1.199c0.8-0.788,1.2-1.737,1.2-2.849  s-0.4-2.074-1.2-2.874C139.343,26.43,138.393,26.043,137.282,26.043L137.282,26.043z"/>
<path display="none" d="M144.178,35.964c-0.736,0.737-1.1,1.612-1.1,2.649v9.871h7.498v-9.871c0-1.037-0.363-1.912-1.1-2.649  c-0.738-0.737-1.612-1.1-2.649-1.1S144.917,35.227,144.178,35.964L144.178,35.964z"/>
<path display="none" d="M110.667,85.47l-0.012-0.014c-1.887-0.924-3.498-1.074-4.836-0.437c-1,0.425-1.85,1.274-2.536,2.536  c-0.013,0.012-0.013,0.025-0.013,0.037l-6.897,14.756h1.387l6.623-14.193c0.537-0.986,1.187-1.648,1.949-1.999  c1.05-0.437,2.312-0.3,3.773,0.425c0.138,0.063,0.274,0.137,0.412,0.213c0,0,0,0,0.013,0c1.137,0.637,1.899,1.361,2.312,2.199  c0.399,0.836,0.438,1.773,0.112,2.836l-5.26,10.521h1.387l5.01-9.996c0.013-0.039,0.025-0.063,0.038-0.102  c0.45-1.424,0.399-2.697-0.163-3.811v0.014c-0.486-1.063-1.424-1.975-2.836-2.75l-0.012-0.012  C110.967,85.619,110.817,85.544,110.667,85.47L110.667,85.47z"/>
<path display="none" d="M93.549,79.146v0.013c-0.837-0.8-2.062-1.3-3.673-1.486c-0.163-0.025-0.325-0.051-0.5-0.063h-0.012  c-2.087-0.163-3.636,0.299-4.673,1.387v0.012c-0.762,0.763-1.225,1.862-1.387,3.299c-0.013,0.013-0.013,0.025-0.013,0.037  l-1.2,20.004h1.262l1.187-19.928v0.037c0.125-1.112,0.475-1.975,1.05-2.587c0.812-0.812,2.037-1.149,3.673-1.012  c0.163,0.013,0.325,0.037,0.462,0.05c1.287,0.15,2.287,0.537,2.974,1.162c0.688,0.637,1.075,1.512,1.162,2.624l-1.45,19.653h1.262  l1.437-19.616c0-0.037,0-0.063,0-0.1C94.999,81.146,94.474,79.983,93.549,79.146L93.549,79.146z"/>
<path display="none" d="M115.553,102.349h1.824l1.211-1.123c0.863-0.725,1.699-1.113,2.537-1.162  c0.987-0.014,1.949,0.438,2.911,1.35c0.149,0.137,0.3,0.299,0.462,0.475h0.014c0.087,0.111,0.187,0.225,0.287,0.338  c0.037,0.037,0.074,0.086,0.112,0.123h1.536c-0.199-0.299-0.424-0.6-0.674-0.912c-0.013-0.012-0.013-0.012-0.013-0.012  c-0.112-0.137-0.226-0.262-0.337-0.375v-0.012c-0.176-0.188-0.351-0.375-0.525-0.537c-1.25-1.188-2.523-1.75-3.811-1.688h-0.013  c-1.087,0.037-2.175,0.512-3.286,1.449c-0.013,0-0.013,0.014-0.025,0.025l-2.211,2.063V102.349z"/>
<path display="none" d="M70.396,81.283v0.013c-1.087-0.438-2.412-0.438-3.974-0.025h0.013c-0.175,0.037-0.35,0.088-0.513,0.15  c-2.012,0.625-3.286,1.624-3.823,3.012c-0.425,0.999-0.45,2.197-0.075,3.598c0,0.012,0,0.025,0.013,0.037l4.748,14.281h1.312  l-4.873-14.668l0.012,0.025c-0.3-1.088-0.3-2.012,0.013-2.799c0.462-1.05,1.475-1.813,3.049-2.299c0.15-0.051,0.3-0.088,0.45-0.125  c1.262-0.338,2.324-0.351,3.199-0.025h0.013c0.862,0.337,1.537,1,2.037,1.999l6.098,17.892h1.324L73.169,84.02  c-0.012-0.024-0.025-0.05-0.038-0.075C72.47,82.595,71.558,81.708,70.396,81.283L70.396,81.283z"/>
<path display="none" d="M88.326,83.944c-0.212-0.087-0.413-0.087-0.625,0c-0.187,0.088-0.325,0.226-0.412,0.438  c-0.087,0.213-0.087,0.412,0,0.612c0.087,0.212,0.237,0.351,0.45,0.438s0.413,0.075,0.612-0.024  c0.188-0.088,0.325-0.226,0.412-0.438c0.088-0.213,0.088-0.412,0-0.613C88.676,84.17,88.539,84.032,88.326,83.944L88.326,83.944z"/>
<path display="none" d="M91.163,85.519c0.125-0.174,0.175-0.361,0.137-0.574c-0.038-0.237-0.137-0.412-0.3-0.55  c-0.188-0.125-0.387-0.175-0.6-0.138c-0.225,0.025-0.4,0.125-0.525,0.301c-0.138,0.174-0.188,0.374-0.15,0.6  c0.025,0.225,0.125,0.399,0.313,0.524c0.162,0.138,0.362,0.188,0.587,0.162C90.85,85.807,91.025,85.706,91.163,85.519L91.163,85.519  z"/>
<path display="none" d="M91.8,86.88c-0.1,0.014-0.188,0.051-0.25,0.139s-0.1,0.174-0.087,0.275c0.012,0.137,0.025,0.273,0.025,0.436  c-0.025,0.238-0.075,0.463-0.163,0.688h0.013c-0.075,0.162-0.163,0.326-0.275,0.463c-0.013,0.012-0.013,0.012-0.013,0.012  c-0.137,0.213-0.325,0.4-0.55,0.539c-0.112,0.061-0.212,0.111-0.3,0.162c-0.063,0.012-0.112,0.023-0.15,0.037  c-0.637,0.25-1.274,0.25-1.924-0.014h0.013c-0.662-0.262-1.125-0.686-1.412-1.299v-0.012c-0.25-0.514-0.3-1.012-0.15-1.512  c0.025-0.102,0.013-0.201-0.025-0.287c-0.063-0.088-0.137-0.15-0.225-0.188c-0.1-0.025-0.2-0.014-0.287,0.037  c-0.087,0.05-0.15,0.125-0.188,0.225c-0.2,0.674-0.138,1.361,0.2,2.049c0.362,0.787,0.962,1.35,1.799,1.688  c0.837,0.324,1.662,0.324,2.474,0.012c0.013-0.012,0.038-0.012,0.063-0.012c0.038-0.014,0.075-0.025,0.112-0.037  c0.113-0.063,0.25-0.139,0.388-0.213c0.312-0.201,0.575-0.451,0.787-0.75l-0.013,0.012c0.138-0.188,0.263-0.398,0.363-0.625v-0.012  c0.112-0.287,0.187-0.588,0.212-0.9c0-0.012,0-0.023,0-0.037c0-0.188-0.012-0.375-0.025-0.537c-0.012-0.111-0.05-0.188-0.137-0.25  S91.9,86.868,91.8,86.88L91.8,86.88z"/>
<path display="none" d="M106.244,92.104c0.163,0.162,0.351,0.225,0.563,0.211c0.225,0,0.412-0.086,0.563-0.25  c0.162-0.162,0.237-0.35,0.225-0.574c-0.013-0.213-0.087-0.387-0.25-0.549c-0.162-0.15-0.362-0.227-0.575-0.227  c-0.212,0.014-0.399,0.088-0.562,0.25c-0.149,0.164-0.226,0.363-0.226,0.576C105.995,91.767,106.082,91.954,106.244,92.104  L106.244,92.104z"/>
<path display="none" d="M104.32,92.341c-0.112,0.014-0.188,0.063-0.25,0.15c-0.438,0.537-0.638,1.188-0.587,1.949  c0.05,0.875,0.399,1.625,1.062,2.236c0.638,0.613,1.374,0.924,2.237,0.938c0.049,0.012,0.111,0.012,0.188,0.012  c0.012,0,0.012,0,0.024,0c0.138-0.012,0.287-0.025,0.425-0.037c0.012,0,0.012,0,0.025,0c0.361-0.088,0.687-0.213,0.999-0.4  c0.2-0.125,0.388-0.273,0.563-0.461c0.212-0.238,0.388-0.488,0.524-0.775l0.013-0.012c0.063-0.164,0.125-0.338,0.188-0.514  c0.024-0.1,0.013-0.199-0.024-0.287c-0.063-0.088-0.139-0.15-0.226-0.174c-0.101-0.039-0.2-0.025-0.287,0.023  c-0.088,0.051-0.15,0.125-0.175,0.227c-0.051,0.148-0.101,0.287-0.162,0.424c-0.101,0.213-0.226,0.4-0.389,0.563l-0.012,0.012  c-0.125,0.139-0.263,0.25-0.412,0.338c-0.213,0.137-0.45,0.225-0.713,0.287c-0.125,0.014-0.25,0.025-0.361,0.037  c-0.014,0-0.014,0-0.014,0c-0.024,0-0.049,0-0.063,0c-0.024-0.012-0.049-0.012-0.063-0.012c-0.687-0.012-1.273-0.25-1.773-0.725  v-0.012c-0.513-0.477-0.787-1.051-0.824-1.725V94.39c-0.038-0.563,0.111-1.037,0.424-1.436c0.063-0.088,0.088-0.176,0.075-0.275  c-0.013-0.113-0.063-0.188-0.138-0.25C104.506,92.366,104.419,92.329,104.32,92.341L104.32,92.341z"/>
<path display="none" d="M109.73,92.978c0.063-0.225,0.024-0.424-0.087-0.6c-0.113-0.188-0.275-0.313-0.488-0.361  c-0.212-0.063-0.424-0.037-0.611,0.074c-0.188,0.113-0.301,0.287-0.363,0.512c-0.063,0.213-0.024,0.4,0.101,0.588  c0.112,0.188,0.274,0.313,0.487,0.375c0.225,0.051,0.425,0.025,0.612-0.088C109.555,93.366,109.667,93.19,109.73,92.978  L109.73,92.978z"/>
<path display="none" d="M68.109,88.479c0-0.225-0.075-0.412-0.237-0.574c-0.15-0.15-0.337-0.225-0.562-0.225  c-0.225,0-0.413,0.074-0.575,0.225c-0.15,0.162-0.225,0.35-0.225,0.574s0.075,0.412,0.225,0.563c0.162,0.162,0.35,0.238,0.575,0.238  c0.225,0,0.412-0.076,0.562-0.238C68.034,88.892,68.109,88.704,68.109,88.479L68.109,88.479z"/>
<path display="none" d="M68.984,87.681c-0.063,0.213-0.038,0.424,0.075,0.625c0.113,0.188,0.275,0.313,0.487,0.361  c0.212,0.063,0.413,0.037,0.612-0.074c0.188-0.113,0.313-0.275,0.375-0.488c0.05-0.211,0.025-0.412-0.087-0.6  c-0.112-0.199-0.275-0.324-0.475-0.387c-0.212-0.063-0.425-0.025-0.612,0.088C69.159,87.317,69.034,87.468,68.984,87.681  L68.984,87.681z"/>
<path display="none" d="M71.47,89.642c0.063,0.125,0.125,0.25,0.188,0.389c0,0.012,0,0.012,0,0.023c0.063,0.213,0.1,0.438,0.1,0.676  c0,0.188-0.025,0.361-0.063,0.537c-0.063,0.262-0.175,0.5-0.337,0.713c-0.075,0.086-0.15,0.188-0.237,0.287  c-0.038,0.025-0.063,0.049-0.1,0.088l0.012-0.014c-0.5,0.463-1.099,0.688-1.799,0.688c-0.7,0-1.3-0.225-1.787-0.688  c-0.425-0.387-0.662-0.838-0.712-1.35c-0.013-0.1-0.05-0.188-0.138-0.25s-0.175-0.1-0.275-0.088c-0.1,0.014-0.188,0.051-0.25,0.139  c-0.062,0.088-0.1,0.174-0.087,0.275c0.063,0.699,0.388,1.311,0.95,1.824c0.637,0.586,1.399,0.887,2.299,0.887  c0.899,0,1.674-0.301,2.312-0.887c0-0.014,0-0.014,0-0.014c0.025-0.025,0.05-0.049,0.087-0.063c0.012-0.012,0.025-0.025,0.038-0.037  c0.1-0.113,0.2-0.225,0.287-0.338v-0.012c0.225-0.301,0.375-0.625,0.462-0.986c0.063-0.227,0.087-0.463,0.087-0.713  c0-0.324-0.05-0.637-0.137-0.926c-0.013-0.012-0.013-0.012-0.013-0.012c-0.063-0.188-0.15-0.35-0.237-0.512  c-0.05-0.088-0.125-0.15-0.225-0.188c-0.1-0.025-0.188-0.014-0.274,0.037c-0.088,0.051-0.15,0.125-0.188,0.225  C71.408,89.454,71.42,89.556,71.47,89.642L71.47,89.642z"/>
<path d="M59.387,34.258c-1.756,0-3.238,0.612-4.481,1.816c-0.019,0.02-0.019,0.02-0.039,0.04c-1.244,1.262-1.875,2.783-1.875,4.539  c0,1.757,0.632,3.258,1.875,4.502c0.02,0.019,0.02,0.019,0.039,0.038c1.245,1.244,2.725,1.856,4.481,1.856  c1.757,0,3.257-0.633,4.501-1.895c1.263-1.244,1.895-2.745,1.895-4.502c0-1.756-0.632-3.277-1.895-4.539  C62.644,34.87,61.144,34.258,59.387,34.258L59.387,34.258z"/>
<path d="M55.28,49.932c-0.138,0.139-0.256,0.276-0.375,0.414c-0.908,1.067-1.361,2.329-1.361,3.771v15.597h11.844V54.116  c0-1.639-0.572-3.02-1.736-4.185c-1.165-1.165-2.547-1.737-4.186-1.737S56.445,48.767,55.28,49.932L55.28,49.932z"/>
<path d="M93.815,36.114c-1.244-1.244-2.743-1.856-4.501-1.856c-1.757,0-3.277,0.612-4.521,1.856  c-1.244,1.262-1.875,2.783-1.875,4.539c0,1.757,0.631,3.258,1.875,4.502c1.244,1.262,2.763,1.895,4.521,1.895  c1.758,0,3.257-0.633,4.501-1.895c1.264-1.244,1.895-2.745,1.895-4.502C95.709,38.897,95.079,37.376,93.815,36.114L93.815,36.114z"/>
<path d="M74.39,34.258c-1.756,0-3.277,0.612-4.521,1.856c-1.244,1.262-1.875,2.783-1.875,4.539c0,1.757,0.632,3.258,1.875,4.502  c1.244,1.262,2.765,1.895,4.521,1.895c1.757,0,3.259-0.633,4.502-1.895c1.262-1.244,1.895-2.745,1.895-4.502  c0-1.756-0.633-3.277-1.895-4.539C77.648,34.87,76.147,34.258,74.39,34.258L74.39,34.258z"/>
<path d="M70.284,49.932c-1.165,1.165-1.737,2.546-1.737,4.185v15.597h11.845V54.116c0-1.639-0.572-3.02-1.737-4.185  s-2.546-1.737-4.184-1.737C72.832,48.194,71.449,48.767,70.284,49.932L70.284,49.932z"/>
<path d="M85.267,49.912c-1.165,1.164-1.756,2.547-1.756,4.186L83.49,69.713h11.846l0.019-9.871l6.792,6.534l6.671-6.436v9.772  h11.847V54.215c0-1.639-0.574-3.02-1.737-4.185c-1.167-1.165-2.548-1.737-4.187-1.737c-0.85,0-1.639,0.157-2.35,0.474  c-0.354,0.099-0.671,0.258-0.966,0.474c-0.336,0.297-0.574,0.514-0.713,0.651c-0.077,0.061-0.137,0.119-0.157,0.139  c-0.099,0.099-0.216,0.216-0.314,0.337l-8.094,8.112l-8.174-8.173c-0.117-0.138-0.236-0.256-0.355-0.375  c-1.163-1.165-2.545-1.757-4.166-1.757C87.813,48.175,86.432,48.747,85.267,49.912L85.267,49.912z"/>
<path d="M119.163,36.114c-1.243-1.244-2.744-1.856-4.5-1.856c-1.758,0-3.277,0.612-4.521,1.856  c-1.244,1.262-1.877,2.783-1.877,4.539c0,1.757,0.633,3.258,1.877,4.502c1.243,1.262,2.763,1.895,4.521,1.895  c1.756,0,3.257-0.633,4.5-1.895c1.264-1.244,1.896-2.745,1.896-4.502C121.059,38.897,120.426,37.376,119.163,36.114L119.163,36.114z  "/>
<path d="M123.269,40.653c0,1.757,0.632,3.258,1.876,4.502c1.243,1.262,2.763,1.895,4.521,1.895c1.756,0,3.258-0.633,4.501-1.895  c1.263-1.244,1.895-2.745,1.895-4.502c0-1.756-0.632-3.277-1.895-4.539c-1.243-1.244-2.745-1.856-4.501-1.856  c-1.758,0-3.277,0.612-4.521,1.856C123.901,37.376,123.269,38.897,123.269,40.653L123.269,40.653z"/>
<path d="M125.558,49.932c-1.163,1.165-1.737,2.546-1.737,4.185v15.597h11.846V54.116c0-1.639-0.574-3.02-1.737-4.185  c-1.166-1.165-2.547-1.737-4.186-1.737C128.106,48.194,126.725,48.767,125.558,49.932L125.558,49.932z"/>
<path d="M144.59,34.258c-1.759,0-3.277,0.612-4.523,1.856c-1.244,1.262-1.873,2.783-1.873,4.539c0,1.757,0.629,3.258,1.873,4.502  c1.246,1.262,2.765,1.895,4.523,1.895c1.756,0,3.256-0.633,4.499-1.895c1.266-1.244,1.895-2.745,1.895-4.502  c0-1.756-0.629-3.277-1.895-4.539C147.846,34.87,146.346,34.258,144.59,34.258L144.59,34.258z"/>
<path d="M140.483,49.932c-1.166,1.165-1.737,2.546-1.737,4.185v15.597h11.844V54.116c0-1.639-0.571-3.02-1.737-4.185  c-1.163-1.165-2.546-1.737-4.185-1.737S141.647,48.767,140.483,49.932L140.483,49.932z"/>
</svg>
