<svg xmlns="http://www.w3.org/2000/svg" xmlns:xlink="http://www.w3.org/1999/xlink" version="1.1" id="Layer_2" x="0px" y="0px" width="100px" height="100px" viewBox="0 0 100 100" enable-background="new 0 0 100 100" xml:space="preserve">
  <style>
    path,polygon,rect,circle, ellipse{
    fill:#fff;
    }
  </style>
<path d="M29.594,16.499c-1-0.733-2.41-0.515-3.143,0.489c-1.12,1.533-2.092,3.18-2.886,4.892c-0.521,1.128-0.031,2.465,1.098,2.987  c0.306,0.141,0.628,0.209,0.943,0.209c0.85,0,1.661-0.484,2.042-1.304c0.67-1.445,1.489-2.834,2.436-4.129  C30.816,18.639,30.597,17.231,29.594,16.499z M39.944,73.623c0.096,0,0.188-0.005,0.282-0.018c1.232-0.153,2.108-1.278,1.953-2.512  c-0.12-0.955-0.281-1.912-0.478-2.852c-0.259-1.217-1.452-1.986-2.668-1.734c-1.215,0.258-1.992,1.45-1.735,2.666  c0.173,0.814,0.312,1.646,0.417,2.479C37.858,72.79,38.829,73.623,39.944,73.623z M38.472,59.4c-0.88-1.645-1.912-3.228-3.067-4.709  c-0.763-0.979-2.175-1.158-3.156-0.395s-1.159,2.18-0.395,3.159c0.999,1.28,1.893,2.649,2.653,4.069  c0.405,0.756,1.182,1.187,1.983,1.187c0.361,0,0.725-0.087,1.064-0.269C38.649,61.857,39.059,60.495,38.472,59.4z M27.436,43.981  c-0.499-1.138-1.828-1.656-2.963-1.158c-1.139,0.499-1.658,1.825-1.159,2.964c0.758,1.731,1.693,3.397,2.779,4.951  c0.438,0.628,1.136,0.962,1.846,0.962c0.445,0,0.896-0.132,1.286-0.406c1.021-0.71,1.269-2.113,0.556-3.132  C28.864,46.849,28.076,45.442,27.436,43.981z M60.132,11.668c1.454,0.657,2.851,1.464,4.152,2.396  c0.397,0.283,0.854,0.42,1.308,0.42c0.703,0,1.393-0.327,1.833-0.941c0.724-1.01,0.492-2.416-0.519-3.14  c-1.543-1.103-3.196-2.057-4.92-2.836c-1.133-0.513-2.465-0.008-2.977,1.123C58.497,9.823,59,11.155,60.132,11.668z M23.428,38.691  c1.238-0.105,2.156-1.195,2.052-2.434c-0.061-0.708-0.093-1.431-0.093-2.145c0-0.888,0.047-1.784,0.142-2.662  c0.131-1.236-0.765-2.345-2-2.476c-1.229-0.137-2.345,0.763-2.475,1.999c-0.111,1.037-0.167,2.093-0.167,3.139  c0,0.841,0.035,1.692,0.107,2.528c0.101,1.173,1.083,2.059,2.239,2.059C23.297,38.699,23.361,38.696,23.428,38.691z M34.459,14.446  c0.452,0,0.906-0.135,1.304-0.418c1.305-0.929,2.703-1.732,4.159-2.385c1.133-0.509,1.638-1.84,1.13-2.974  c-0.51-1.134-1.84-1.638-2.974-1.131c-1.725,0.775-3.383,1.725-4.928,2.826c-1.012,0.721-1.248,2.125-0.526,3.138  C33.062,14.117,33.756,14.446,34.459,14.446z M47.626,9.612c1.582-0.15,3.226-0.148,4.806,0.006  c0.074,0.008,0.148,0.011,0.221,0.011c1.146,0,2.125-0.869,2.236-2.034c0.12-1.236-0.785-2.336-2.021-2.457  c-1.865-0.181-3.799-0.185-5.67-0.007c-1.235,0.118-2.143,1.217-2.024,2.454C45.293,8.822,46.383,9.739,47.626,9.612z   M43.206,91.577c0,1.881,1.54,3.423,3.424,3.423h6.738c1.884,0,3.424-1.542,3.424-3.423v-0.106H43.206V91.577z M78.956,31.044  c-0.129-1.235-1.229-2.129-2.472-2.004c-1.236,0.129-2.135,1.236-2.006,2.471c0.09,0.857,0.135,1.732,0.135,2.602  c0,0.738-0.034,1.48-0.096,2.204c-0.111,1.237,0.805,2.331,2.041,2.44c0.067,0.006,0.137,0.009,0.201,0.009  c1.153,0,2.135-0.883,2.239-2.053c0.075-0.856,0.112-1.731,0.112-2.601C79.113,33.087,79.061,32.055,78.956,31.044z M72.377,23.825  c0.378,0.825,1.193,1.31,2.044,1.31c0.315,0,0.636-0.067,0.94-0.209c1.129-0.521,1.623-1.856,1.103-2.984  c-0.791-1.718-1.758-3.367-2.872-4.9c-0.734-1.005-2.138-1.226-3.145-0.496c-1.004,0.732-1.225,2.139-0.494,3.144  C70.895,20.984,71.709,22.375,72.377,23.825z M75.509,42.885c-1.136-0.5-2.465,0.011-2.968,1.149  c-0.646,1.463-1.439,2.867-2.357,4.175c-0.715,1.016-0.471,2.42,0.545,3.135c0.396,0.276,0.848,0.409,1.295,0.409  c0.707,0,1.403-0.334,1.843-0.957c1.088-1.549,2.024-3.213,2.791-4.944C77.159,44.716,76.645,43.387,75.509,42.885z M62.154,79.075  c-0.232-1.207-1.291-2.083-2.524-2.083H40.315c-1.417,0-2.564,1.15-2.564,2.566c0,1.42,1.147,2.569,2.564,2.569h5.908l-6.854,2.726  c-1.145,0.455-1.806,1.658-1.575,2.869c0.234,1.205,1.292,2.082,2.521,2.082H59.63c1.417,0,2.567-1.15,2.565-2.564  c0-1.42-1.149-2.571-2.566-2.571h-5.906l6.855-2.724C61.723,81.492,62.387,80.286,62.154,79.075z M67.71,54.348  c-0.981-0.762-2.394-0.582-3.157,0.398c-1.15,1.482-2.18,3.068-3.059,4.712c-0.585,1.097-0.172,2.46,0.925,3.045  c0.338,0.183,0.7,0.269,1.06,0.269c0.801,0,1.58-0.433,1.984-1.19c0.76-1.42,1.65-2.791,2.646-4.076  C68.87,56.523,68.691,55.111,67.71,54.348z M60.966,66.505c-1.216-0.25-2.409,0.519-2.668,1.736  c-0.198,0.938-0.358,1.896-0.479,2.85c-0.152,1.233,0.723,2.358,1.953,2.513c0.097,0.014,0.188,0.019,0.283,0.019  c1.116,0,2.088-0.833,2.229-1.972c0.104-0.832,0.245-1.664,0.417-2.478C62.958,67.957,62.182,66.764,60.966,66.505z"/>
</svg>
