<svg xmlns="http://www.w3.org/2000/svg" xml:space="preserve" width="400px" height="200px" style="shape-rendering:geometricPrecision; text-rendering:geometricPrecision; image-rendering:optimizeQuality; fill-rule:evenodd; clip-rule:evenodd"
viewBox="0 0 3.10565 0.873943"
 xmlns:xlink="http://www.w3.org/1999/xlink">
 <defs>
  <style type="text/css">
   <![CDATA[
    .fil0 {fill:#373435}
   ]]>
  </style>
 </defs>
 <g id="Layer_x0020_1">
  <metadata id="CorelCorpID_0Corel-Layer"/>
  <path class="fil0" d="M0.889818 0.33044c-0.00481055,0.0072805 -0.0147146,0.012277 -0.026171,0.012277 -0.0133563,0 -0.0246227,-0.00678732 -0.0281276,-0.016081l0.0542986 0.00380397zm1.99373 0.173673c0.00670243,-0.00167763 0.0155514,-0.00345632 0.0265429,-0.00534011 0.0109955,-0.00188379 0.0237213,-0.00282973 0.0381691,-0.00282973 0.0104741,0 0.0192705,0.00141487 0.0263893,0.0042446 0.00712285,0.00282569 0.0130895,0.00696115 0.0179082,0.0124064 0.00146338,-0.001047 0.00376759,-0.00251442 0.00690859,-0.00439822 0.003141,-0.00188379 0.00701774,-0.00371504 0.0116262,-0.00549777 0.00460438,-0.00177869 0.00973833,-0.00335121 0.0153897,-0.00470949 0.00565543,-0.00136231 0.0117313,-0.00204549 0.0182235,-0.00204549 0.012564,0 0.0228279,0.00183528 0.0307835,0.00549777 0.00795964,0.00366653 0.0141891,0.00884898 0.0186924,0.0155514 0.00450332,0.00670243 0.00753922,0.0146621 0.00911174,0.0238749 0.00156848,0.00921685 0.00235676,0.0192664 0.00235676,0.0301569l0 0.0917319 -0.029219 0 0 -0.0854458c0,-0.00963727 -0.000468927,-0.0179082 -0.00141082,-0.0248208 -0.000941897,-0.00690859 -0.00272463,-0.0126691 -0.00534011,-0.0172775 -0.00261953,-0.00460438 -0.00618095,-0.00800815 -0.0106843,-0.0102073 -0.00449928,-0.00219911 -0.0103124,-0.00329866 -0.0174312,-0.00329866 -0.00984343,0 -0.0179607,0.00130976 -0.0243478,0.00392525 -0.00638711,0.00261953 -0.0107328,0.00497629 -0.013037,0.00707029 0.00167359,0.00544522 0.0029308,0.0114119 0.00376759,0.0179041 0.000840835,0.00649222 0.00125721,0.0132998 0.00125721,0.0204186l0 0.0917319 -0.029215 0 0 -0.0854458c0,-0.00963727 -0.00052148,-0.0179082 -0.00156848,-0.0248208 -0.001047,-0.00690859 -0.00288229,-0.0126691 -0.00549777,-0.0172775 -0.00261953,-0.00460438 -0.00618095,-0.00800815 -0.0106843,-0.0102073 -0.00449928,-0.00219911 -0.0102073,-0.00329866 -0.0171199,-0.00329866 -0.0029308,0 -0.0060718,0.000105104 -0.00942301,0.000311271 -0.00335121,0.000210209 -0.00654477,0.00047297 -0.00958067,0.000788283 -0.0030359,0.000311271 -0.00581308,0.000679136 -0.0083275,0.00109955 -0.00251038,0.000416375 -0.00418801,0.000731688 -0.0050248,0.000941897l0 0.137909 -0.029215 0 0 -0.158643zm-0.0264984 0.0769647c0,0.0129844 -0.00188379,0.0247117 -0.00565543,0.0351857 -0.00376759,0.01047 -0.00905515,0.0194767 -0.0158627,0.0270159 -0.00680753,0.00753922 -0.0149208,0.0133523 -0.0243478,0.0174352 -0.00942301,0.0040829 -0.0196828,0.00612435 -0.0307835,0.00612435 -0.0111006,0 -0.0213645,-0.00204145 -0.0307875,-0.00612435 -0.00942301,-0.0040829 -0.0175403,-0.00989598 -0.0243478,-0.0174352 -0.00680349,-0.00753922 -0.0120911,-0.0165459 -0.0158627,-0.0270159 -0.00376759,-0.0104741 -0.00565543,-0.0222013 -0.00565543,-0.0351857 0,-0.0127742 0.00188784,-0.0244489 0.00565543,-0.0350281 0.00377163,-0.0105751 0.00905919,-0.0196343 0.0158627,-0.0271735 0.00680753,-0.00753922 0.0149248,-0.0133483 0.0243478,-0.0174352 0.00942301,-0.0040829 0.0196869,-0.00612435 0.0307875,-0.00612435 0.0111006,0 0.0213605,0.00204145 0.0307835,0.00612435 0.00942706,0.00408694 0.0175403,0.00989598 0.0243478,0.0174352 0.00680753,0.00753922 0.0120951,0.0165984 0.0158627,0.0271735 0.00377163,0.0105792 0.00565543,0.0222538 0.00565543,0.0350281zm-0.0304722 0c0,-0.0184297 -0.00413545,-0.0330351 -0.0124064,-0.0438245 -0.00827495,-0.0107853 -0.0195292,-0.016178 -0.0337709,-0.016178 -0.0142416,0 -0.0254999,0.00539266 -0.0337709,0.016178 -0.00827495,0.0107894 -0.0124104,0.0253948 -0.0124104,0.0438245 0,0.0184297 0.00413545,0.0330392 0.0124104,0.0438245 0.00827091,0.0107853 0.0195292,0.016178 0.0337709,0.016178 0.0142416,0 0.0254959,-0.00539266 0.0337709,-0.016178 0.00827091,-0.0107853 0.0124064,-0.0253948 0.0124064,-0.0438245zm-0.174146 0.0854499c-0.0131946,0 -0.0247683,-0.00209805 -0.0347128,-0.00628605 -0.00994854,-0.00418801 -0.0183286,-0.0100496 -0.0251321,-0.0175929 -0.00680753,-0.00753922 -0.0118849,-0.0164893 -0.0152361,-0.0268582 -0.00335121,-0.0103649 -0.00502884,-0.0218334 -0.00502884,-0.0343974 0,-0.0125681 0.00183528,-0.0240851 0.00549777,-0.0345551 0.00366653,-0.0104741 0.00884898,-0.0195292 0.0155514,-0.0271735 0.00670243,-0.00764432 0.0149208,-0.0136151 0.0246591,-0.0179082 0.00973833,-0.00429311 0.0205762,-0.00643967 0.0325136,-0.00643967 0.00733305,0 0.0146621,0.000626584 0.0219911,0.00188379 0.00732901,0.00125721 0.0143468,0.00324611 0.0210492,0.00597074l-0.00659732 0.0248168c-0.00439822,-0.002094 -0.00947961,-0.00377163 -0.0152361,-0.0050248 -0.00576053,-0.00125721 -0.0118849,-0.00188784 -0.0183771,-0.00188784 -0.0163357,0 -0.0288512,0.00513395 -0.0375425,0.0153938 -0.00869133,0.0102639 -0.013037,0.0252372 -0.013037,0.0449241 0,0.00879643 0.000994449,0.0168571 0.00298335,0.0241902 0.00199294,0.00732901 0.00513395,0.013611 0.00942706,0.018846 0.00429311,0.00523501 0.00979088,0.0092694 0.0164933,0.0120951 0.00669839,0.00282973 0.0148682,0.00424056 0.0245015,0.00424056 0.00774943,0 0.0147672,-0.000731688 0.0210492,-0.00219911 0.00628201,-0.00146338 0.0112017,-0.0030359 0.0147631,-0.00470949l0.0040829 0.0245015c-0.00167359,0.001047 -0.0040829,0.00204145 -0.00722391,0.00298335 -0.003141,0.000941897 -0.00670243,0.00178273 -0.0106802,0.00251442 -0.0039778,0.000731688 -0.0082224,0.00136231 -0.0127217,0.00188379 -0.00450332,0.000525522 -0.00884898,0.000788283 -0.013037,0.000788283zm-0.099069 -0.0207339c0,0.00565138 -0.00188379,0.0105751 -0.00565543,0.0147631 -0.00376759,0.00418801 -0.00890154,0.00628201 -0.0153938,0.00628201 -0.00649222,0 -0.0116221,-0.002094 -0.0153897,-0.00628201 -0.00377163,-0.00418801 -0.00565543,-0.00911174 -0.00565543,-0.0147631 0,-0.00565543 0.00188379,-0.0105792 0.00565543,-0.0147672 0.00376759,-0.00418801 0.00889749,-0.00628201 0.0153897,-0.00628201 0.00649222,0 0.0116262,0.002094 0.0153938,0.00628201 0.00377163,0.00418801 0.00565543,0.00911174 0.00565543,0.0147672zm-0.26916 -0.0534092c0.0358123,0 0.0623552,-0.00471353 0.0796368,-0.0141365 0.0172775,-0.00942706 0.0259163,-0.0245055 0.0259163,-0.0452394 0,-0.0213605 -0.00848112,-0.0383267 -0.0254474,-0.0508907 -0.0169622,-0.0125681 -0.0449241,-0.0267046 -0.0838774,-0.0424096 -0.0188501,-0.00753922 -0.0369119,-0.0152361 -0.0541894,-0.0230906 -0.0172816,-0.00785453 -0.0322024,-0.0171239 -0.0447664,-0.0278042 -0.0125681,-0.0106802 -0.0226217,-0.0235596 -0.0301609,-0.038638 -0.00753922,-0.0150825 -0.0113068,-0.0336172 -0.0113068,-0.0556043 0,-0.0433556 0.0160203,-0.077753 0.0480651,-0.1032 0.0320407,-0.0254474 0.0757075,-0.0381691 0.131001,-0.0381691 0.0138212,0 0.0276425,0.000784241 0.0414677,0.00235676 0.0138212,0.00156848 0.0267006,0.00345632 0.038638,0.00565543 0.0119374,0.00219911 0.022464,0.00455183 0.0315717,0.00706625 0.00911174,0.00251442 0.016182,0.00471353 0.0212068,0.00659732l-0.0160203 0.0753962c-0.00942706,-0.0050248 -0.0241902,-0.0102113 -0.0442975,-0.0155514 -0.0201032,-0.00534011 -0.0442934,-0.00800815 -0.0725665,-0.00800815 -0.0245055,0 -0.0458659,0.00486714 -0.0640894,0.0146055 -0.0182194,0.00973833 -0.0273312,0.0249744 -0.0273312,0.0457083 0,0.0106843 0.00204145,0.0201073 0.0061284,0.0282771 0.0040829,0.0081658 0.0103649,0.0155474 0.018846,0.0221447 0.00848516,0.00659732 0.0190077,0.0127257 0.0315758,0.0183771 0.012564,0.00565543 0.0276425,0.0116262 0.0452353,0.0179082 0.0232483,0.00879643 0.0439822,0.0174352 0.0622016,0.0259163 0.0182194,0.00848516 0.0337709,0.0183771 0.0466502,0.029688 0.0128834,0.0113109 0.0227794,0.0249744 0.029688,0.0409988 0.00691264,0.0160203 0.010369,0.0356547 0.010369,0.0589029 0,0.0452353 -0.0168086,0.0794791 -0.0504218,0.102727 -0.0336132,0.0232442 -0.0815206,0.0348704 -0.143722,0.0348704 -0.0433556,0 -0.0772841,-0.00361397 -0.101786,-0.0108379 -0.0245055,-0.00722795 -0.0411565,-0.0127257 -0.0499529,-0.0164933l0.0160244 -0.0753962c0.0100536,0.00376759 0.026074,0.00942301 0.0480651,0.0169622 0.0219911,0.00753922 0.0512061,0.0113109 0.087649,0.0113109zm-0.367995 0c0.0207339,0 0.039111,-0.00047297 0.0551353,-0.00141487 0.0160203,-0.000941897 0.0293726,-0.00266804 0.0400529,-0.00518246l0 -0.146079c-0.00628201,-0.003141 -0.0164933,-0.00581308 -0.0306299,-0.00801219 -0.0141365,-0.00219911 -0.0312564,-0.00329866 -0.0513637,-0.00329866 -0.0131946,0 -0.0271735,0.000941897 -0.0419407,0.00282569 -0.0147631,0.00188784 -0.0282731,0.00581308 -0.0405218,0.0117838 -0.0122527,0.0059667 -0.022464,0.0141365 -0.0306299,0.0245015 -0.00816985,0.010369 -0.0122527,0.0240325 -0.0122527,0.0409988 0,0.0314141 0.0100536,0.0532475 0.0301569,0.0655003 0.0201073,0.0122487 0.0474385,0.0183771 0.0819936,0.0183771zm-0.00753922 -0.439183c0.0351857,0 0.0648737,0.00455587 0.0890598,0.0136636 0.0241902,0.00911174 0.0436668,0.0219911 0.058434,0.038642 0.0147631,0.016651 0.0252897,0.0364429 0.0315717,0.0593759 0.00628201,0.022933 0.00942301,0.0482227 0.00942301,0.0758652l0 0.306299c-0.00753922,0.00125721 -0.0180618,0.00298335 -0.0315717,0.00518246 -0.0135059,0.00219911 -0.028742,0.00424056 -0.0457083,0.00612435 -0.0169622,0.00188784 -0.0353393,0.00361397 -0.0551313,0.0051865 -0.019792,0.00156848 -0.0394263,0.00235676 -0.0589029,0.00235676 -0.0276465,0 -0.0530939,-0.00282973 -0.0763422,-0.00848516 -0.0232442,-0.00565543 -0.0433515,-0.0146055 -0.0603138,-0.0268582 -0.0169663,-0.0122527 -0.0301609,-0.0284307 -0.0395839,-0.048538 -0.00942301,-0.0201032 -0.0141365,-0.0442934 -0.0141365,-0.0725665 0,-0.0270159 0.00549777,-0.0502642 0.0164933,-0.0697408 0.0109955,-0.0194807 0.0259163,-0.0351857 0.0447664,-0.0471232 0.0188501,-0.0119374 0.0408371,-0.0207339 0.0659692,-0.0263893 0.0251321,-0.00565543 0.0515214,-0.00848112 0.0791679,-0.00848112 0.00879643,0 0.0179041,0.000468927 0.0273312,0.00141082 0.00942301,0.00094594 0.0183771,0.00219911 0.0268582,0.00377163 0.00848516,0.00157252 0.0158667,0.00298335 0.0221487,0.00424056 0.00628201,0.00125721 0.0106802,0.00219911 0.0131946,0.00282569l0 -0.0245015c0,-0.0144519 -0.00157252,-0.0287461 -0.00471353,-0.0428826 -0.003141,-0.0141365 -0.00879643,-0.0267006 -0.0169622,-0.0376961 -0.00816985,-0.0109955 -0.019323,-0.019792 -0.0334596,-0.0263893 -0.0141365,-0.00659732 -0.0325136,-0.00989598 -0.0551313,-0.00989598 -0.0289037,0 -0.0541894,0.00204145 -0.0758692,0.00612435 -0.0216758,0.00408694 -0.0378538,0.0083275 -0.048534,0.0127257l-0.010369 -0.0725706c0.0113109,-0.0050248 0.0301609,-0.00989598 0.0565502,-0.0146055 0.0263853,-0.00471353 0.0549737,-0.00707029 0.0857612,-0.00707029zm-0.412288 0.439183c0.0207339,0 0.039111,-0.00047297 0.0551353,-0.00141487 0.0160203,-0.000941897 0.0293726,-0.00266804 0.0400529,-0.00518246l0 -0.146079c-0.00628201,-0.003141 -0.0164933,-0.00581308 -0.0306299,-0.00801219 -0.0141365,-0.00219911 -0.0312564,-0.00329866 -0.0513637,-0.00329866 -0.0131946,0 -0.0271735,0.000941897 -0.0419407,0.00282569 -0.0147631,0.00188784 -0.0282731,0.00581308 -0.0405218,0.0117838 -0.0122527,0.0059667 -0.022464,0.0141365 -0.0306299,0.0245015 -0.00816985,0.010369 -0.0122527,0.0240325 -0.0122527,0.0409988 0,0.0314141 0.0100536,0.0532475 0.0301569,0.0655003 0.0201073,0.0122487 0.0474385,0.0183771 0.0819936,0.0183771zm-0.00753922 -0.439183c0.0351857,0 0.0648737,0.00455587 0.0890598,0.0136636 0.0241902,0.00911174 0.0436668,0.0219911 0.058434,0.038642 0.0147631,0.016651 0.0252897,0.0364429 0.0315717,0.0593759 0.00628201,0.022933 0.00942301,0.0482227 0.00942301,0.0758652l0 0.306299c-0.00753922,0.00125721 -0.0180618,0.00298335 -0.0315717,0.00518246 -0.0135059,0.00219911 -0.028742,0.00424056 -0.0457083,0.00612435 -0.0169622,0.00188784 -0.0353393,0.00361397 -0.0551313,0.0051865 -0.019792,0.00156848 -0.0394263,0.00235676 -0.0589029,0.00235676 -0.0276465,0 -0.0530939,-0.00282973 -0.0763422,-0.00848516 -0.0232442,-0.00565543 -0.0433515,-0.0146055 -0.0603138,-0.0268582 -0.0169663,-0.0122527 -0.0301609,-0.0284307 -0.0395839,-0.048538 -0.00942301,-0.0201032 -0.0141365,-0.0442934 -0.0141365,-0.0725665 0,-0.0270159 0.00549777,-0.0502642 0.0164933,-0.0697408 0.0109955,-0.0194807 0.0259163,-0.0351857 0.0447664,-0.0471232 0.0188501,-0.0119374 0.0408371,-0.0207339 0.0659692,-0.0263893 0.0251321,-0.00565543 0.0515214,-0.00848112 0.0791679,-0.00848112 0.00879643,0 0.0179041,0.000468927 0.0273312,0.00141082 0.00942301,0.00094594 0.0183771,0.00219911 0.0268582,0.00377163 0.00848516,0.00157252 0.0158667,0.00298335 0.0221487,0.00424056 0.00628201,0.00125721 0.0106802,0.00219911 0.0131946,0.00282569l0 -0.0245015c0,-0.0144519 -0.00157252,-0.0287461 -0.00471353,-0.0428826 -0.003141,-0.0141365 -0.00879643,-0.0267006 -0.0169622,-0.0376961 -0.00816985,-0.0109955 -0.019323,-0.019792 -0.0334596,-0.0263893 -0.0141365,-0.00659732 -0.0325136,-0.00989598 -0.0551313,-0.00989598 -0.0289037,0 -0.0541894,0.00204145 -0.0758692,0.00612435 -0.0216758,0.00408694 -0.0378538,0.0083275 -0.048534,0.0127257l-0.010369 -0.0725706c0.0113109,-0.0050248 0.0301609,-0.00989598 0.0565502,-0.0146055 0.0263853,-0.00471353 0.0549737,-0.00707029 0.0857612,-0.00707029zm-0.404749 0.67857c-0.00754731,0 -0.0172856,-0.00094594 -0.029219,-0.00282973 -0.0119334,-0.00189188 -0.0219951,-0.00439417 -0.0301569,-0.00754731l0.0113109 -0.0716165c0.00627797,0.00187975 0.0135019,0.00345228 0.0216717,0.00470949 0.00816985,0.00125721 0.0157091,0.00187975 0.0226217,0.00187975 0.0301528,0 0.051679,-0.00926132 0.0645584,-0.0277961 0.0128793,-0.0185307 0.019315,-0.0457164 0.019315,-0.0815246l0 -0.481592 0.087645 0 0 0.480647c0,0.0628363 -0.0142902,0.109486 -0.0428745,0.139955 -0.0285884,0.0304762 -0.0702178,0.0457164 -0.124872,0.0457164zm0.123457 -0.7168c-0.015705,0 -0.0290654,-0.0051865 -0.0400488,-0.0155474 -0.0109875,-0.0103649 -0.0164974,-0.0243438 -0.0164974,-0.0419326 0,-0.0176009 0.0055099,-0.0315798 0.0164974,-0.0419447 0.0109834,-0.0103487 0.0243438,-0.0155474 0.0400488,-0.0155474 0.015705,0 0.0290614,0.00519863 0.0400488,0.0155474 0.0109875,0.0103649 0.0164974,0.0243438 0.0164974,0.0419447 0,0.0175888 -0.0055099,0.0315677 -0.0164974,0.0419326 -0.0109875,0.0103609 -0.0243438,0.0155474 -0.0400488,0.0155474zm-0.490462 0.064619c0.0201073,-0.00502884 0.0468078,-0.010369 0.0801098,-0.0160244 0.0332979,-0.00565138 0.0716246,-0.00848112 0.114976,-0.00848112 0.0389574,0 0.0713133,0.00549777 0.097072,0.0164933 0.0257627,0.0109955 0.0463389,0.0263893 0.0617327,0.0461813 0.0153938,0.019792 0.0262316,0.0435092 0.0325136,0.0711557 0.00628201,0.0276425 0.00942301,0.0581147 0.00942301,0.0914166l0 0.275196 -0.087645 0 0 -0.256346c0,-0.0301609 -0.00204145,-0.0559196 -0.0061284,-0.07728 -0.0040829,-0.0213645 -0.0108379,-0.038642 -0.0202609,-0.0518367 -0.00942301,-0.0131946 -0.0219911,-0.0227753 -0.0377001,-0.0287461 -0.015705,-0.0059667 -0.0351817,-0.00895409 -0.05843,-0.00895409 -0.00942301,0 -0.0191654,0.000315313 -0.029215,0.00094594 -0.0100536,0.000626584 -0.0196343,0.00141082 -0.0287461,0.00235272 -0.00911174,0.00094594 -0.0172775,0.00204549 -0.0245055,0.00329866 -0.00722391,0.00125721 -0.0124064,0.00219911 -0.0155474,0.00282973l0 0.413735 -0.087649 0 0 -0.475937zm-0.0518084 0.475937l-0.087649 0 0 -0.490074 0.087649 0 0 0.490074zm-0.0442934 -0.540556c-0.015705,0 -0.0290614,-0.0051865 -0.0400488,-0.0155474 -0.0109875,-0.0103649 -0.0164974,-0.0243438 -0.0164974,-0.0419326 0,-0.0176009 0.0055099,-0.0315798 0.0164974,-0.0419447 0.0109875,-0.0103487 0.0243438,-0.0155474 0.0400488,-0.0155474 0.0157091,0 0.0290654,0.00519863 0.0400529,0.0155474 0.0109834,0.0103649 0.0164933,0.0243438 0.0164933,0.0419447 0,0.0175888 -0.0055099,0.0315677 -0.0164933,0.0419326 -0.0109875,0.0103609 -0.0243438,0.0155474 -0.0400529,0.0155474zm-0.173321 0.540556c-0.0138212,-0.0232483 -0.029688,-0.0493223 -0.0475961,-0.0782219 -0.0179041,-0.0289037 -0.0372231,-0.0589029 -0.057957,-0.0900058 -0.0207379,-0.0310988 -0.042256,-0.0626746 -0.0645584,-0.0947152 -0.0223064,-0.0320447 -0.0444551,-0.0629899 -0.0664462,-0.0928315 -0.021987,-0.0298456 -0.0433515,-0.057961 -0.0640854,-0.0843503 -0.0207339,-0.0263893 -0.0398952,-0.0496376 -0.0574881,-0.0697408l0 0.509866 -0.0895328 0 0 -0.653119 0.0725665 0c0.0295303,0.0314141 0.061102,0.0680147 0.0947193,0.109798 0.0336132,0.041779 0.0669111,0.0848193 0.0998977,0.129113 0.0329866,0.0442975 0.0640854,0.0878067 0.0933044,0.130532 0.029215,0.0427249 0.0538741,0.0807364 0.0739814,0.114034l0 -0.483476 0.0895328 0 0 0.653119 -0.0763381 0zm1.05141 0.121889c-0.00183124,-0.00150784 -0.00446694,-0.00295909 -0.00791113,-0.00435779 -0.00344015,-0.0013987 -0.00720774,-0.00209805 -0.0112987,-0.00209805 -0.00430524,0 -0.00798794,0.000780198 -0.0110562,0.00234059 -0.00306824,0.0015604 -0.00557053,0.00371099 -0.00750688,0.00645584 -0.00193635,0.00274484 -0.00333504,0.00599904 -0.00419609,0.00976663 -0.000861048,0.00376355 -0.00128955,0.00780198 -0.00128955,0.0121072 0,0.00979088 0.00242144,0.0173503 0.00726433,0.0226743 0.00484289,0.00532799 0.0112947,0.00799198 0.0193675,0.00799198 0.00409099,0 0.00750688,-0.000185954 0.0102517,-0.000565947 0.0027408,-0.00037595 0.00486714,-0.000780198 0.00637499,-0.0012087l0 -0.053106zm0 -0.0564977l0.0150138 -0.00258314 0 0.122839c-0.00344823,0.000970195 -0.00785858,0.00193635 -0.0132391,0.00290654 -0.00538054,0.000966152 -0.0115696,0.00145125 -0.0185631,0.00145125 -0.00645584,0 -0.0122689,-0.00102275 -0.0174312,-0.00306824 -0.00516629,-0.00204145 -0.00958067,-0.00494799 -0.0132391,-0.00871558 -0.00365844,-0.00376355 -0.00648009,-0.00836389 -0.00847303,-0.013801 -0.0019889,-0.00543309 -0.00298739,-0.0115372 -0.00298739,-0.0183165 0,-0.00645988 0.000836793,-0.0123781 0.00250229,-0.0177586 0.00166954,-0.00538054 0.00411524,-0.0100092 0.00734518,-0.0138819 0.00322994,-0.00387269 0.00718348,-0.00688838 0.0118647,-0.00903898 0.00468119,-0.0021506 0.0100334,-0.00322994 0.0160608,-0.00322994 0.00484289,0 0.00911983,0.000646796 0.0128308,0.00194039 0.00371504,0.00128955 0.00648413,0.00252655 0.00831538,0.00371099l0 -0.0424541zm0.114928 0.0807121c0,0.00667009 -0.000966152,0.0126934 -0.00290654,0.0180739 -0.00193635,0.00538458 -0.00465289,0.0100092 -0.00814963,0.0138859 -0.00350079,0.00387269 -0.00766858,0.00685604 -0.0125115,0.00895813 -0.00484289,0.002094 -0.0101143,0.00314505 -0.0158182,0.00314505 -0.00570394,0 -0.0109753,-0.00105104 -0.0158182,-0.00314505 -0.00484289,-0.00210209 -0.00901472,-0.00508544 -0.0125074,-0.00895813 -0.00350079,-0.00387674 -0.00621733,-0.00850133 -0.00815368,-0.0138859 -0.00193635,-0.00538054 -0.00290654,-0.0114038 -0.00290654,-0.0180739 0,-0.00656903 0.000970195,-0.012564 0.00290654,-0.0180012 0.00193635,-0.00543309 0.00465289,-0.010086 0.00815368,-0.0139627 0.0034927,-0.00387269 0.00766454,-0.00686008 0.0125074,-0.00895813 0.00484289,-0.00209805 0.0101143,-0.00314909 0.0158182,-0.00314909 0.00570394,0 0.0109753,0.00105104 0.0158182,0.00314909 0.00484289,0.00209805 0.00901068,0.00508544 0.0125115,0.00895813 0.00349674,0.00387674 0.00621329,0.00852963 0.00814963,0.0139627 0.00194039,0.00543713 0.00290654,0.0114321 0.00290654,0.0180012zm-0.0156565 0c0,-0.00947152 -0.00212634,-0.0169784 -0.00637903,-0.0225206 -0.00424864,-0.00554224 -0.0100334,-0.00831133 -0.0173503,-0.00831133 -0.00731688,0 -0.0131017,0.0027691 -0.0173503,0.00831133 -0.00425269,0.00554224 -0.00637499,0.0130491 -0.00637499,0.0225206 0,0.00946748 0.0021223,0.0169744 0.00637499,0.0225166 0.00424864,0.00554224 0.0100334,0.00831133 0.0173503,0.00831133 0.00731688,0 0.0131017,-0.0027691 0.0173503,-0.00831133 0.00425269,-0.00554224 0.00637903,-0.0130491 0.00637903,-0.0225166zm0.126711 0.0335728c-0.00129359,0.000861048 -0.00379589,0.0019606 -0.00750688,0.00330675 -0.00371099,0.00134614 -0.00804049,0.0020172 -0.0129925,0.0020172 -0.00505714,0 -0.00981918,-0.000804453 -0.0142861,-0.00242144 -0.00446694,-0.00161295 -0.00836793,-0.00411524 -0.011703,-0.00750284 -0.00333504,-0.00339164 -0.00597074,-0.00761603 -0.00790709,-0.0126732 -0.00194039,-0.00505714 -0.00290654,-0.0110845 -0.00290654,-0.018078 0,-0.00613244 0.0009136,-0.0117555 0.0027408,-0.0168652 0.00183124,-0.00511373 0.00449523,-0.00952812 0.00799198,-0.0132391 0.00349674,-0.00371099 0.00777368,-0.00661754 0.0128308,-0.00871558 0.00506118,-0.00209805 0.0107651,-0.00314909 0.0171118,-0.00314909 0.00699349,0 0.0131017,0.000513395 0.0183205,0.00153614 0.00521884,0.0010187 0.00960493,0.0019606 0.0131542,0.00282569l0 0.074895c0,0.0129117 -0.00333504,0.0222741 -0.0100051,0.0280871 -0.00667413,0.00580904 -0.0167884,0.00871558 -0.0303469,0.00871558 -0.00527139,0 -0.0102517,-0.000428503 -0.0149289,-0.00129359 -0.00468523,-0.000857005 -0.00874388,-0.00188379 -0.0121881,-0.0030642l0.00274484 -0.0130774c0.00301165,0.00118445 0.00669434,0.00223549 0.0110562,0.00314909 0.00435779,0.0009136 0.00890154,0.0013704 0.0136393,0.0013704 0.00892983,0 0.0153614,-0.00177465 0.0192867,-0.00532394 0.00392929,-0.00355334 0.00589393,-0.00920068 0.00589393,-0.0169501l0 -0.0035493zm-0.000161699 -0.0623067c-0.00150784,-0.000432545 -0.00352504,-0.000836793 -0.00605159,-0.00121274 -0.00253059,-0.00037595 -0.00594648,-0.000561904 -0.0102517,-0.000561904 -0.00807283,0 -0.0142861,0.0026357 -0.0186439,0.00790709 -0.00435779,0.00527543 -0.00653669,0.0122689 -0.00653669,0.0209845 0,0.00484289 0.000618499,0.00898643 0.0018555,0.0124306 0.00124104,0.00344015 0.00290654,0.00629414 0.00500459,0.00855388 0.00209805,0.00225974 0.00451949,0.00392929 0.00726433,0.00500459 0.0027408,0.0010753 0.00556649,0.00161295 0.00847303,0.00161295 0.00398184,0 0.00764028,-0.000565947 0.0109753,-0.0016938 0.00333504,-0.00113189 0.00597478,-0.00244974 0.00791113,-0.00395354l0 -0.0490716zm0.0718308 -0.0150138c0.00129359,0 0.0027691,8.08495e-005 0.00443864,0.000242549 0.00166954,0.000161699 0.00330675,0.00037595 0.00492374,0.000646796 0.00161295,0.000270846 0.0030925,0.000537649 0.00443864,0.000808495 0.00134614,0.000266804 0.00234059,0.000509352 0.00298739,0.000723603l-0.00258314 0.0130774c-0.00118445,-0.000432545 -0.00314909,-0.000941897 -0.00589393,-0.0015321 -0.00274484,-0.000594244 -0.00626584,-0.000889345 -0.0105711,-0.000889345 -0.00279739,0 -0.00557053,0.000295101 -0.00831133,0.000889345 -0.00274484,0.000590202 -0.00454779,0.000994449 -0.00540883,0.0012087l0 0.0705372 -0.0150138 0 0 -0.0803847c0.00355334,-0.00129359 0.00796368,-0.00250229 0.0132391,-0.00363014 0.00527139,-0.00113189 0.0111896,-0.00169784 0.0177546,-0.00169784zm0.0266318 0.0439053c0,-0.00742199 0.0010753,-0.0139061 0.00322994,-0.0194484 0.0021506,-0.00554224 0.00500459,-0.0101426 0.00855388,-0.013801 0.0035493,-0.00365844 0.00764028,-0.00640328 0.0122689,-0.00823453 0.00462864,-0.0018272 0.00936238,-0.00274484 0.0142053,-0.00274484 0.0112987,0 0.0199618,0.00352504 0.025985,0.0105751 0.00602733,0.00704604 0.00903898,0.0177829 0.00903898,0.0322024 0,0.000646796 0,0.00147955 0,0.00250229 0,0.00102275 -5.25522e-005,0.00196464 -0.000161699,0.00282165l-0.0574598 0c0.000642754,0.00871962 0.00317334,0.0153372 0.00758369,0.0198566 0.00441034,0.00451949 0.0112987,0.00677923 0.0206611,0.00677923 0.00527139,0 0.00971407,-0.0004568 0.0133159,-0.0013704 0.00360589,-0.000917642 0.00632243,-0.00180294 0.00815368,-0.00266399l0.00209805 0.0125883c-0.00183124,0.000970195 -0.00503288,0.00199294 -0.00960493,0.00306824 -0.00457204,0.0010753 -0.00976663,0.00161295 -0.0155757,0.00161295 -0.00731688,0 -0.0136393,-0.0011036 -0.0189673,-0.00330675 -0.00532799,-0.00220719 -0.00971407,-0.00524714 -0.0131542,-0.00911983 -0.00344419,-0.00387269 -0.00599904,-0.00847303 -0.00766858,-0.013801 -0.00166954,-0.00532799 -0.00250229,-0.0111653 -0.00250229,-0.0175161zm0.0576255 -0.00823048c0.000109147,-0.00677923 -0.00158465,-0.0123498 -0.00508544,-0.0167076 -0.00349674,-0.00435779 -0.00831133,-0.00653669 -0.0144478,-0.00653669 -0.00344015,0 -0.00648009,0.000671051 -0.00911579,0.0020172 -0.00263974,0.00134614 -0.00487119,0.0030925 -0.00670243,0.00524714 -0.0018272,0.0021506 -0.00325419,0.00462459 -0.00427694,0.00742603 -0.00102275,0.00279335 -0.0016938,0.00564734 -0.0020172,0.00855388l0.0416456 0zm0.0656983 0.0392242c0.0035493,0 0.00669839,-8.08495e-005 0.00944323,-0.000242549 0.0027408,-0.000161699 0.00502884,-0.0004568 0.00686008,-0.000889345l0 -0.0250189c-0.0010753,-0.000537649 -0.00282569,-0.000994449 -0.00524714,-0.0013704 -0.00242144,-0.00037595 -0.00535628,-0.000565947 -0.00879643,-0.000565947 -0.00225974,0 -0.00465693,0.000161699 -0.00718348,0.000485097 -0.00253059,0.000323398 -0.00484289,0.000994449 -0.00694093,0.0020172 -0.00209805,0.00102275 -0.00384844,0.00242144 -0.00524714,0.00419609 -0.0013987,0.00177465 -0.00209805,0.00411524 -0.00209805,0.00702178 0,0.00538054 0.0017221,0.00911983 0.00516629,0.0112179 0.00344419,0.00209805 0.00812134,0.00314909 0.0140436,0.00314909zm-0.00129359 -0.0752224c0.00602733,0 0.0111128,0.000784241 0.0152523,0.00234059 0.00414758,0.00156444 0.00747858,0.00376759 0.0100092,0.00662158 0.00253059,0.00284995 0.00433354,0.00623754 0.00540883,0.0101668 0.0010753,0.00392929 0.00161295,0.00825878 0.00161295,0.0129925l0 0.0524633c-0.00128955,0.000214251 -0.0030925,0.000509352 -0.00540883,0.000885303 -0.0023123,0.00037595 -0.0049197,0.000727646 -0.00782624,0.00105104 -0.00290654,0.000323398 -0.00605159,0.000618499 -0.00944323,0.000889345 -0.00339164,0.000266804 -0.00675094,0.000400205 -0.01009,0.000400205 -0.00473374,0 -0.00909153,-0.000485097 -0.0130734,-0.00145125 -0.00398184,-0.000970195 -0.00742603,-0.00250229 -0.0103285,-0.00460034 -0.00290654,-0.00209805 -0.00516629,-0.00487119 -0.00677923,-0.00831133 -0.00161699,-0.00344419 -0.00242144,-0.00758773 -0.00242144,-0.0124306 0,-0.00462864 0.000941897,-0.00861048 0.00282165,-0.0119455 0.00188379,-0.00333504 0.00444268,-0.00602733 0.00766858,-0.00806878 0.0032259,-0.00204549 0.00699349,-0.00355334 0.0112987,-0.00451949 0.00430524,-0.000970195 0.00882473,-0.00145529 0.0135585,-0.00145529 0.00150784,0 0.00306824,8.08495e-005 0.00468119,0.000242549 0.00161699,0.000161699 0.00314909,0.00037595 0.00460034,0.000646796 0.00145529,0.000266804 0.00271654,0.000509352 0.00379589,0.000727646 0.0010753,0.000214251 0.0018272,0.00037595 0.00225974,0.000481055l0 -0.00419609c0,-0.002474 -0.000270846,-0.00492374 -0.000808495,-0.00734518 -0.000537649,-0.00242144 -0.00150784,-0.00457204 -0.00290654,-0.00645584 -0.0013987,-0.00188379 -0.00330675,-0.0033876 -0.00572819,-0.00451949 -0.00242144,-0.00112785 -0.00557053,-0.0016938 -0.00944323,-0.0016938 -0.00495203,0 -0.00928153,0.000347653 -0.0129966,0.001047 -0.00371099,0.000699349 -0.00648009,0.00142699 -0.00831133,0.0021789l-0.00177465 -0.0124266c0.00193635,-0.000861048 0.00516629,-0.0016938 0.00968578,-0.00250229 0.00451545,-0.000808495 0.00941493,-0.00121274 0.0146863,-0.00121274zm0.071184 0.00210209l0.0317981 0 0 0.0125883 -0.0317981 0 0 0.0387391c0,0.00420013 0.000323398,0.00766858 0.000970195,0.0104134 0.000642754,0.00274484 0.00161295,0.00489544 0.0029025,0.00645584 0.00129359,0.0015604 0.00290654,0.00266399 0.00484289,0.00331079 0.00193635,0.000642754 0.00420013,0.000966152 0.00677923,0.000966152 0.00451949,0 0.00815368,-0.000509352 0.0108985,-0.0015321 0.00274484,-0.00102275 0.00465289,-0.00175039 0.00572819,-0.0021789l0.00290654 0.0124266c-0.00150784,0.000755943 -0.00414354,0.00169784 -0.00791113,0.00282569 -0.00376355,0.00113189 -0.00806878,0.0016938 -0.0129117,0.0016938 -0.00570394,0 -0.0104094,-0.000727646 -0.0141244,-0.0021789 -0.00371099,-0.00145125 -0.00669839,-0.00363014 -0.00895813,-0.00653669 -0.00225974,-0.00290654 -0.00384844,-0.00648413 -0.00476204,-0.0107328 -0.0009136,-0.00425269 -0.0013704,-0.00917642 -0.0013704,-0.0147712l0 -0.074895 0.0150097 -0.00258314 0 0.0259891zm0.156735 0.083934c-0.00301569,-0.00774943 -0.00621329,-0.0165984 -0.00960493,-0.026551 -0.0033876,-0.00995662 -0.00648413,-0.0203134 -0.00928153,-0.0310745 -0.00279739,0.0107611 -0.00586159,0.0211179 -0.00920068,0.0310745 -0.00333504,0.00995258 -0.00650839,0.0188016 -0.00952408,0.026551l-0.0130734 0c-0.00494799,-0.0110845 -0.00979088,-0.0237293 -0.0145287,-0.0379346 -0.00473374,-0.0142012 -0.00920068,-0.0295384 -0.0133968,-0.0459994l0.0161416 0c0.0010753,0.00505714 0.00236889,0.0105428 0.00387674,0.016461 0.0015038,0.00592223 0.0030925,0.0118404 0.004758,0.0177586 0.00166954,0.00591819 0.00341994,0.0116221 0.00524714,0.0171078 0.00183124,0.00548968 0.00355334,0.01028 0.00516629,0.014367 0.0018272,-0.00505714 0.00363014,-0.0104094 0.00540883,-0.0160608 0.00177465,-0.00565138 0.00346845,-0.0113553 0.00508139,-0.0171078 0.00161295,-0.00576053 0.00314909,-0.0114079 0.00460034,-0.0169501 0.00145529,-0.00554224 0.00271654,-0.0107368 0.00379184,-0.0155757l0.0124306 0c0.000970195,0.00483885 0.00215464,0.0100334 0.0035493,0.0155757 0.00140274,0.00554224 0.00290654,0.0111896 0.00452353,0.0169501 0.00161295,0.00575245 0.00330675,0.0114564 0.00508139,0.0171078 0.00177869,0.00565138 0.00358164,0.0110036 0.00540883,0.0160608 0.00161295,-0.00408694 0.00331079,-0.00887728 0.00508544,-0.014367 0.00177465,-0.00548564 0.00352504,-0.0111896 0.00524714,-0.0171078 0.00171805,-0.00591819 0.00333504,-0.0118364 0.00483885,-0.0177586 0.00150784,-0.00591819 0.00280144,-0.0114038 0.00387674,-0.016461l0.0154948 0c-0.00419609,0.016461 -0.00866303,0.0317981 -0.0133968,0.0459994 -0.00473374,0.0142053 -0.00957663,0.0268501 -0.0145287,0.0379346l-0.0130734 0zm0.130908 -0.041965c0,0.00667009 -0.000966152,0.0126934 -0.00290654,0.0180739 -0.00193635,0.00538458 -0.00465289,0.0100092 -0.00814963,0.0138859 -0.00350079,0.00387269 -0.00766858,0.00685604 -0.0125115,0.00895813 -0.00484289,0.002094 -0.0101143,0.00314505 -0.0158182,0.00314505 -0.00570394,0 -0.0109753,-0.00105104 -0.0158182,-0.00314505 -0.00484289,-0.00210209 -0.00901472,-0.00508544 -0.0125074,-0.00895813 -0.00350079,-0.00387674 -0.00621733,-0.00850133 -0.00815368,-0.0138859 -0.00193635,-0.00538054 -0.00290654,-0.0114038 -0.00290654,-0.0180739 0,-0.00656903 0.000970195,-0.012564 0.00290654,-0.0180012 0.00193635,-0.00543309 0.00465289,-0.010086 0.00815368,-0.0139627 0.0034927,-0.00387269 0.00766454,-0.00686008 0.0125074,-0.00895813 0.00484289,-0.00209805 0.0101143,-0.00314909 0.0158182,-0.00314909 0.00570394,0 0.0109753,0.00105104 0.0158182,0.00314909 0.00484289,0.00209805 0.00901068,0.00508544 0.0125115,0.00895813 0.00349674,0.00387674 0.00621329,0.00852963 0.00814963,0.0139627 0.00194039,0.00543713 0.00290654,0.0114321 0.00290654,0.0180012zm-0.0156565 0c0,-0.00947152 -0.00212634,-0.0169784 -0.00637903,-0.0225206 -0.00424864,-0.00554224 -0.0100334,-0.00831133 -0.0173503,-0.00831133 -0.00731688,0 -0.0131017,0.0027691 -0.0173503,0.00831133 -0.00425269,0.00554224 -0.00637499,0.0130491 -0.00637499,0.0225206 0,0.00946748 0.0021223,0.0169744 0.00637499,0.0225166 0.00424864,0.00554224 0.0100334,0.00831133 0.0173503,0.00831133 0.00731688,0 0.0131017,-0.0027691 0.0173503,-0.00831133 0.00425269,-0.00554224 0.00637903,-0.0130491 0.00637903,-0.0225166zm0.0677923 -0.0437477c0.00129359,0 0.00277314,8.08495e-005 0.00444268,0.000242549 0.0016655,0.000161699 0.00330675,0.00037595 0.0049197,0.000646796 0.00161699,0.000270846 0.00309654,0.000537649 0.00443864,0.000808495 0.00134614,0.000266804 0.00234059,0.000509352 0.00298739,0.000723603l-0.00258314 0.0130774c-0.00118445,-0.000432545 -0.00314505,-0.000941897 -0.00588989,-0.0015321 -0.00274484,-0.000594244 -0.00626988,-0.000889345 -0.0105751,-0.000889345 -0.00279335,0 -0.00556649,0.000295101 -0.00831133,0.000889345 -0.00274484,0.000590202 -0.00454779,0.000994449 -0.00540883,0.0012087l0 0.0705372 -0.0150097 0 0 -0.0803847c0.0035493,-0.00129359 0.00796368,-0.00250229 0.0132351,-0.00363014 0.00527543,-0.00113189 0.0111936,-0.00169784 0.0177546,-0.00169784zm0.061664 0.0395476c0.0032259,0.002474 0.00664179,0.00554224 0.0102477,0.00920068 0.00360589,0.00365844 0.00715519,0.00761603 0.0106519,0.0118647 0.00350079,0.00425269 0.00680753,0.00855388 0.00992832,0.0129157 0.00312079,0.00435779 0.00575649,0.00841644 0.00791113,0.012184l-0.0175969 0c-0.00225974,-0.00376759 -0.00486714,-0.00761199 -0.00782624,-0.0115413 -0.00295909,-0.00392929 -0.00605563,-0.00769283 -0.00928153,-0.0112987 -0.00322994,-0.00360589 -0.00651243,-0.00691264 -0.00984748,-0.00992428 -0.00333504,-0.00301569 -0.00650839,-0.00554224 -0.00952408,-0.00758773l0 0.040352 -0.0150097 0 0 -0.122677 0.0150097 -0.00258314 0 0.076512c0.00258314,-0.00258314 0.00543713,-0.00543309 0.00855792,-0.00855388 0.00312079,-0.00312079 0.00618499,-0.00629414 0.00920068,-0.00952408 0.00301165,-0.0032259 0.00586159,-0.00632243 0.00855388,-0.00928153 0.00268825,-0.00295909 0.00500459,-0.00557053 0.00694093,-0.00782624l0.0175929 0c-0.002474,0.00268825 -0.00516629,0.00564734 -0.00806878,0.00887728 -0.00290654,0.0032259 -0.00591819,0.00648413 -0.00903898,0.00976258 -0.00312079,0.00328249 -0.00626988,0.00656498 -0.00944323,0.00984748 -0.00317334,0.00328249 -0.00616478,0.00637499 -0.00895813,0.00928153zm-1.50315 -0.466991c0.00481055,0.0072805 0.0147187,0.012277 0.026171,0.012277 0.0133563,0 0.0246227,-0.00678732 0.0281276,-0.016081l-0.0542986 0.00380397z"/>
 </g>
</svg>
