<svg xmlns="http://www.w3.org/2000/svg" xmlns:xlink="http://www.w3.org/1999/xlink" version="1.1" id="Layer_1" x="0px" y="0px" width="100px" height="100px" viewBox="0 0 100 100" enable-background="new 0 0 100 100" xml:space="preserve">
<g>
	<path fill-rule="evenodd" clip-rule="evenodd" d="M96.833,63.809L79.491,82.728c-1.823,1.823-4.483,3.399-6.307,1.576   L44.807,57.502c-1.54-0.225-1.577-28.377-1.577-28.377s25.016-0.212,26.801,1.577L98.41,55.926   C100.232,57.749,98.656,61.986,96.833,63.809z M56.08,35.123c-1.903-1.903-4.988-1.903-6.892,0c-1.903,1.903-1.903,4.988,0,6.891   c1.903,1.903,4.988,1.903,6.892,0C57.982,40.111,57.982,37.026,56.08,35.123z M83.22,59.233c-0.132-2.131-1.025-4.024-2.679-5.679   c-1.481-1.478-3.089-2.294-4.828-2.444c-1.74-0.147-4,0.575-6.787,2.171l-5.354-5.355c1.269-0.502,2.55-0.317,3.837,0.548   l3.012-3.917c-1.607-1.133-3.249-1.678-4.924-1.635c-1.675,0.04-3.326,0.699-4.951,1.977l-1.358-1.355l-1.983,1.986l1.355,1.354   c-1.417,1.728-2.088,3.572-2.014,5.534c0.073,1.964,0.858,3.694,2.358,5.191c1.478,1.478,3.153,2.318,5.025,2.521   c1.872,0.2,3.957-0.338,6.257-1.619l5.739,5.739c-0.729,0.256-1.561,0.32-2.494,0.194c-0.93-0.13-1.835-0.483-2.709-1.068   l-3.19,3.957c2.069,1.523,4.096,2.287,6.066,2.287s3.843-0.692,5.616-2.081l2.494,2.491l1.983-1.986l-2.562-2.559   C82.656,63.448,83.353,61.367,83.22,59.233z M72.76,57.117c1.06-0.584,1.992-0.834,2.796-0.754   c0.804,0.083,1.512,0.432,2.125,1.041c0.684,0.687,1.065,1.496,1.143,2.433c0.076,0.936-0.164,1.811-0.718,2.623L72.76,57.117z    M63.947,54.932c-0.708-0.123-1.303-0.426-1.786-0.908c-0.529-0.529-0.856-1.174-0.973-1.932c-0.117-0.76,0-1.499,0.356-2.22   l4.739,4.739C65.435,54.949,64.655,55.055,63.947,54.932z M39.84,26.569c0,0-0.228,31.093,1.463,31.343l28.784,27.963H0.682   c0,0-0.105-10.082,3.085-14.205c1.838-1.761,10.784-8,20.545-9.438c9.761-1.441,5.635-12.052,5.955-11.892   c0.317,0.16-0.08-2.322-0.08-2.322s-5.955-6.426-5.875-12.588s0.649-10.599,0.649-10.599s-0.305-14.62,9.675-14.62l7.018,3.147   c8.97,0,11.036,11.036,11.036,11.036l-0.145,2.3C45.903,26.572,39.84,26.569,39.84,26.569z"/>
</g>
</svg>